<mxfile host="app.diagrams.net" modified="2021-08-15T22:14:34.892Z" agent="5.0 (Macintosh; Intel Mac OS X 10_15_7) AppleWebKit/537.36 (KHTML, like Gecko) Chrome/92.0.4515.131 Safari/537.36" etag="sY2eXIJMBIma3lqaKvPf" version="14.9.6" type="github" pages="7">
  <diagram id="_62O3048h5ipws49CyEk" name="Reference UI">
    <mxGraphModel dx="1278" dy="1990" grid="1" gridSize="10" guides="1" tooltips="1" connect="1" arrows="1" fold="1" page="1" pageScale="1" pageWidth="827" pageHeight="1169" math="0" shadow="0">
      <root>
        <mxCell id="64JzyqGMkA08n9KjyNon-0" />
        <mxCell id="64JzyqGMkA08n9KjyNon-1" parent="64JzyqGMkA08n9KjyNon-0" />
        <mxCell id="_48AJxqkp_w9yxt09wJj-2" value="2. Matched offers" style="shape=umlFrame;whiteSpace=wrap;html=1;align=left;verticalAlign=middle;width=120;height=30;fillColor=#f5f5f5;strokeColor=#666666;fontColor=#333333;" parent="64JzyqGMkA08n9KjyNon-1" vertex="1">
          <mxGeometry x="530" y="-60" width="470" height="640" as="geometry" />
        </mxCell>
        <mxCell id="_48AJxqkp_w9yxt09wJj-1" value="1. Items list" style="shape=umlFrame;whiteSpace=wrap;html=1;align=left;verticalAlign=middle;width=90;height=30;fillColor=#f5f5f5;strokeColor=#666666;fontColor=#333333;" parent="64JzyqGMkA08n9KjyNon-1" vertex="1">
          <mxGeometry x="10" y="-60" width="470" height="640" as="geometry" />
        </mxCell>
        <mxCell id="_ke7eIl3AvGKQpVB0oSp-24" value="" style="whiteSpace=wrap;html=1;align=left;" parent="64JzyqGMkA08n9KjyNon-1" vertex="1">
          <mxGeometry x="30" y="40" width="430" height="360" as="geometry" />
        </mxCell>
        <mxCell id="_ke7eIl3AvGKQpVB0oSp-9" value="" style="rounded=0;whiteSpace=wrap;html=1;" parent="64JzyqGMkA08n9KjyNon-1" vertex="1">
          <mxGeometry x="40" y="90" width="400" height="60" as="geometry" />
        </mxCell>
        <mxCell id="_ke7eIl3AvGKQpVB0oSp-10" value="Item name 1" style="text;html=1;strokeColor=none;fillColor=none;align=left;verticalAlign=middle;whiteSpace=wrap;rounded=0;" parent="64JzyqGMkA08n9KjyNon-1" vertex="1">
          <mxGeometry x="50" y="110" width="250" height="20" as="geometry" />
        </mxCell>
        <mxCell id="_ke7eIl3AvGKQpVB0oSp-11" value="3" style="rounded=0;whiteSpace=wrap;html=1;fillColor=#fff2cc;strokeColor=#d6b656;" parent="64JzyqGMkA08n9KjyNon-1" vertex="1">
          <mxGeometry x="260" y="105" width="30" height="30" as="geometry" />
        </mxCell>
        <mxCell id="_ke7eIl3AvGKQpVB0oSp-12" value="" style="rounded=0;whiteSpace=wrap;html=1;fillColor=#fff2cc;strokeColor=#d6b656;" parent="64JzyqGMkA08n9KjyNon-1" vertex="1">
          <mxGeometry x="310" y="105" width="30" height="30" as="geometry" />
        </mxCell>
        <mxCell id="_ke7eIl3AvGKQpVB0oSp-13" value="i have" style="text;html=1;align=center;verticalAlign=middle;resizable=0;points=[];autosize=1;strokeColor=none;" parent="64JzyqGMkA08n9KjyNon-1" vertex="1">
          <mxGeometry x="250" y="50" width="50" height="20" as="geometry" />
        </mxCell>
        <mxCell id="_ke7eIl3AvGKQpVB0oSp-14" value="i need" style="text;html=1;align=center;verticalAlign=middle;resizable=0;points=[];autosize=1;strokeColor=none;" parent="64JzyqGMkA08n9KjyNon-1" vertex="1">
          <mxGeometry x="300" y="50" width="50" height="20" as="geometry" />
        </mxCell>
        <mxCell id="_ke7eIl3AvGKQpVB0oSp-15" value="" style="rounded=0;whiteSpace=wrap;html=1;" parent="64JzyqGMkA08n9KjyNon-1" vertex="1">
          <mxGeometry x="40" y="160" width="400" height="60" as="geometry" />
        </mxCell>
        <mxCell id="_ke7eIl3AvGKQpVB0oSp-16" value="Item name 2" style="text;html=1;strokeColor=none;fillColor=none;align=left;verticalAlign=middle;whiteSpace=wrap;rounded=0;" parent="64JzyqGMkA08n9KjyNon-1" vertex="1">
          <mxGeometry x="50" y="180" width="250" height="20" as="geometry" />
        </mxCell>
        <mxCell id="_ke7eIl3AvGKQpVB0oSp-17" value="" style="rounded=0;whiteSpace=wrap;html=1;fillColor=#fff2cc;strokeColor=#d6b656;" parent="64JzyqGMkA08n9KjyNon-1" vertex="1">
          <mxGeometry x="260" y="175" width="30" height="30" as="geometry" />
        </mxCell>
        <mxCell id="_ke7eIl3AvGKQpVB0oSp-18" value="2" style="rounded=0;whiteSpace=wrap;html=1;fillColor=#fff2cc;strokeColor=#d6b656;" parent="64JzyqGMkA08n9KjyNon-1" vertex="1">
          <mxGeometry x="310" y="175" width="30" height="30" as="geometry" />
        </mxCell>
        <mxCell id="_ke7eIl3AvGKQpVB0oSp-19" value="" style="rounded=0;whiteSpace=wrap;html=1;" parent="64JzyqGMkA08n9KjyNon-1" vertex="1">
          <mxGeometry x="40" y="230" width="400" height="60" as="geometry" />
        </mxCell>
        <mxCell id="_ke7eIl3AvGKQpVB0oSp-20" value="Item name 3" style="text;html=1;strokeColor=none;fillColor=none;align=left;verticalAlign=middle;whiteSpace=wrap;rounded=0;" parent="64JzyqGMkA08n9KjyNon-1" vertex="1">
          <mxGeometry x="50" y="250" width="250" height="20" as="geometry" />
        </mxCell>
        <mxCell id="_ke7eIl3AvGKQpVB0oSp-21" value="" style="rounded=0;whiteSpace=wrap;html=1;fillColor=#fff2cc;strokeColor=#d6b656;" parent="64JzyqGMkA08n9KjyNon-1" vertex="1">
          <mxGeometry x="260" y="245" width="30" height="30" as="geometry" />
        </mxCell>
        <mxCell id="_ke7eIl3AvGKQpVB0oSp-22" value="1" style="rounded=0;whiteSpace=wrap;html=1;fillColor=#fff2cc;strokeColor=#d6b656;" parent="64JzyqGMkA08n9KjyNon-1" vertex="1">
          <mxGeometry x="310" y="245" width="30" height="30" as="geometry" />
        </mxCell>
        <mxCell id="_ke7eIl3AvGKQpVB0oSp-23" value="Item" style="text;html=1;align=center;verticalAlign=middle;resizable=0;points=[];autosize=1;strokeColor=none;" parent="64JzyqGMkA08n9KjyNon-1" vertex="1">
          <mxGeometry x="65" y="50" width="40" height="20" as="geometry" />
        </mxCell>
        <mxCell id="_ke7eIl3AvGKQpVB0oSp-25" value="Filter traded" style="rounded=1;whiteSpace=wrap;html=1;align=center;" parent="64JzyqGMkA08n9KjyNon-1" vertex="1">
          <mxGeometry x="170" width="120" height="30" as="geometry" />
        </mxCell>
        <mxCell id="_ke7eIl3AvGKQpVB0oSp-27" value="A0: Reload" style="rounded=1;whiteSpace=wrap;html=1;align=center;" parent="64JzyqGMkA08n9KjyNon-1" vertex="1">
          <mxGeometry x="30" width="120" height="30" as="geometry" />
        </mxCell>
        <mxCell id="_ke7eIl3AvGKQpVB0oSp-28" value="3" style="rounded=0;whiteSpace=wrap;html=1;dashed=1;dashPattern=1 2;" parent="64JzyqGMkA08n9KjyNon-1" vertex="1">
          <mxGeometry x="390" y="105" width="30" height="30" as="geometry" />
        </mxCell>
        <mxCell id="_ke7eIl3AvGKQpVB0oSp-29" value="" style="rounded=0;whiteSpace=wrap;html=1;dashed=1;dashPattern=1 2;" parent="64JzyqGMkA08n9KjyNon-1" vertex="1">
          <mxGeometry x="390" y="175" width="30" height="30" as="geometry" />
        </mxCell>
        <mxCell id="_ke7eIl3AvGKQpVB0oSp-30" value="" style="rounded=0;whiteSpace=wrap;html=1;dashed=1;dashPattern=1 2;" parent="64JzyqGMkA08n9KjyNon-1" vertex="1">
          <mxGeometry x="390" y="245" width="30" height="30" as="geometry" />
        </mxCell>
        <mxCell id="_ke7eIl3AvGKQpVB0oSp-31" value="matched&lt;br&gt;offers" style="text;html=1;align=center;verticalAlign=middle;resizable=0;points=[];autosize=1;strokeColor=none;" parent="64JzyqGMkA08n9KjyNon-1" vertex="1">
          <mxGeometry x="375" y="45" width="60" height="30" as="geometry" />
        </mxCell>
        <mxCell id="_ke7eIl3AvGKQpVB0oSp-54" value="" style="whiteSpace=wrap;html=1;align=left;" parent="64JzyqGMkA08n9KjyNon-1" vertex="1">
          <mxGeometry x="540" y="110" width="430" height="420" as="geometry" />
        </mxCell>
        <mxCell id="_ke7eIl3AvGKQpVB0oSp-55" value="" style="rounded=0;whiteSpace=wrap;html=1;" parent="64JzyqGMkA08n9KjyNon-1" vertex="1">
          <mxGeometry x="553" y="160" width="400" height="60" as="geometry" />
        </mxCell>
        <mxCell id="_ke7eIl3AvGKQpVB0oSp-56" value="Item name 2" style="text;html=1;strokeColor=none;fillColor=none;align=left;verticalAlign=middle;whiteSpace=wrap;rounded=0;" parent="64JzyqGMkA08n9KjyNon-1" vertex="1">
          <mxGeometry x="563" y="180" width="250" height="20" as="geometry" />
        </mxCell>
        <mxCell id="_ke7eIl3AvGKQpVB0oSp-61" value="" style="rounded=0;whiteSpace=wrap;html=1;" parent="64JzyqGMkA08n9KjyNon-1" vertex="1">
          <mxGeometry x="553" y="230" width="400" height="60" as="geometry" />
        </mxCell>
        <mxCell id="_ke7eIl3AvGKQpVB0oSp-62" value="Item name 1" style="text;html=1;strokeColor=none;fillColor=none;align=left;verticalAlign=middle;whiteSpace=wrap;rounded=0;" parent="64JzyqGMkA08n9KjyNon-1" vertex="1">
          <mxGeometry x="563" y="250" width="250" height="20" as="geometry" />
        </mxCell>
        <mxCell id="_ke7eIl3AvGKQpVB0oSp-69" value="Item" style="text;html=1;align=center;verticalAlign=middle;resizable=0;points=[];autosize=1;strokeColor=none;" parent="64JzyqGMkA08n9KjyNon-1" vertex="1">
          <mxGeometry x="575" y="120" width="40" height="20" as="geometry" />
        </mxCell>
        <mxCell id="_ke7eIl3AvGKQpVB0oSp-72" value="" style="rounded=0;whiteSpace=wrap;html=1;dashed=1;dashPattern=1 2;" parent="64JzyqGMkA08n9KjyNon-1" vertex="1">
          <mxGeometry x="903" y="175" width="30" height="30" as="geometry" />
        </mxCell>
        <mxCell id="_ke7eIl3AvGKQpVB0oSp-73" value="1" style="rounded=0;whiteSpace=wrap;html=1;dashed=1;dashPattern=1 2;" parent="64JzyqGMkA08n9KjyNon-1" vertex="1">
          <mxGeometry x="903" y="245" width="30" height="30" as="geometry" />
        </mxCell>
        <mxCell id="_ke7eIl3AvGKQpVB0oSp-75" value="they need" style="text;html=1;align=center;verticalAlign=middle;resizable=0;points=[];autosize=1;strokeColor=none;" parent="64JzyqGMkA08n9KjyNon-1" vertex="1">
          <mxGeometry x="883" y="120" width="70" height="20" as="geometry" />
        </mxCell>
        <mxCell id="_ke7eIl3AvGKQpVB0oSp-77" value="2" style="rounded=0;whiteSpace=wrap;html=1;dashed=1;dashPattern=1 2;" parent="64JzyqGMkA08n9KjyNon-1" vertex="1">
          <mxGeometry x="836" y="175" width="30" height="30" as="geometry" />
        </mxCell>
        <mxCell id="_ke7eIl3AvGKQpVB0oSp-78" value="" style="rounded=0;whiteSpace=wrap;html=1;dashed=1;dashPattern=1 2;" parent="64JzyqGMkA08n9KjyNon-1" vertex="1">
          <mxGeometry x="836" y="245" width="30" height="30" as="geometry" />
        </mxCell>
        <mxCell id="_ke7eIl3AvGKQpVB0oSp-79" value="they have" style="text;html=1;align=center;verticalAlign=middle;resizable=0;points=[];autosize=1;strokeColor=none;" parent="64JzyqGMkA08n9KjyNon-1" vertex="1">
          <mxGeometry x="813" y="120" width="70" height="20" as="geometry" />
        </mxCell>
        <mxCell id="_ke7eIl3AvGKQpVB0oSp-82" value="A7: Share Contact" style="rounded=1;whiteSpace=wrap;html=1;align=center;fillColor=#d5e8d4;strokeColor=#82b366;" parent="64JzyqGMkA08n9KjyNon-1" vertex="1">
          <mxGeometry x="851" y="-50" width="120" height="30" as="geometry" />
        </mxCell>
        <mxCell id="_ke7eIl3AvGKQpVB0oSp-85" value="System: Sol" style="text;html=1;align=left;verticalAlign=middle;resizable=0;points=[];autosize=1;strokeColor=none;" parent="64JzyqGMkA08n9KjyNon-1" vertex="1">
          <mxGeometry x="540" y="40" width="80" height="20" as="geometry" />
        </mxCell>
        <mxCell id="_ke7eIl3AvGKQpVB0oSp-87" value="&lt;span&gt;A3: Request Contact&lt;/span&gt;" style="rounded=1;whiteSpace=wrap;html=1;align=center;fillColor=#dae8fc;strokeColor=#6c8ebf;" parent="64JzyqGMkA08n9KjyNon-1" vertex="1">
          <mxGeometry x="851" y="-150" width="120" height="30" as="geometry" />
        </mxCell>
        <mxCell id="_ke7eIl3AvGKQpVB0oSp-88" value="or, if already requested by other party:" style="text;html=1;align=center;verticalAlign=middle;resizable=0;points=[];autosize=1;strokeColor=none;fillColor=#ffffff;" parent="64JzyqGMkA08n9KjyNon-1" vertex="1">
          <mxGeometry x="755" y="-70" width="220" height="20" as="geometry" />
        </mxCell>
        <mxCell id="_ke7eIl3AvGKQpVB0oSp-89" value="1/3" style="text;html=1;align=center;verticalAlign=middle;resizable=0;points=[];autosize=1;strokeColor=none;" parent="64JzyqGMkA08n9KjyNon-1" vertex="1">
          <mxGeometry x="783" y="545" width="30" height="20" as="geometry" />
        </mxCell>
        <mxCell id="_ke7eIl3AvGKQpVB0oSp-91" value="or, if already shared by other party:" style="text;html=1;align=center;verticalAlign=middle;resizable=0;points=[];autosize=1;strokeColor=none;" parent="64JzyqGMkA08n9KjyNon-1" vertex="1">
          <mxGeometry x="775" y="-20" width="200" height="20" as="geometry" />
        </mxCell>
        <mxCell id="_ke7eIl3AvGKQpVB0oSp-93" value="Contact and other shared info from other party&lt;br&gt;if already was shared by other party" style="text;html=1;align=left;verticalAlign=middle;resizable=0;points=[];autosize=1;strokeColor=#666666;fillColor=#f5f5f5;fontColor=#333333;" parent="64JzyqGMkA08n9KjyNon-1" vertex="1">
          <mxGeometry x="540" y="70" width="260" height="30" as="geometry" />
        </mxCell>
        <mxCell id="_ke7eIl3AvGKQpVB0oSp-95" value="A8: Complete" style="rounded=1;whiteSpace=wrap;html=1;align=center;fillColor=#d5e8d4;strokeColor=#82b366;" parent="64JzyqGMkA08n9KjyNon-1" vertex="1">
          <mxGeometry x="851" width="120" height="30" as="geometry" />
        </mxCell>
        <mxCell id="_ke7eIl3AvGKQpVB0oSp-96" value="A6: Abandon" style="rounded=1;whiteSpace=wrap;html=1;align=center;fillColor=#ffe6cc;strokeColor=#d79b00;" parent="64JzyqGMkA08n9KjyNon-1" vertex="1">
          <mxGeometry x="721" width="120" height="30" as="geometry" />
        </mxCell>
        <mxCell id="_ke7eIl3AvGKQpVB0oSp-99" value="A1: Publish trade" style="rounded=1;whiteSpace=wrap;html=1;align=center;fillColor=#d5e8d4;strokeColor=#82b366;" parent="64JzyqGMkA08n9KjyNon-1" vertex="1">
          <mxGeometry x="334" y="-50" width="120" height="30" as="geometry" />
        </mxCell>
        <mxCell id="_ke7eIl3AvGKQpVB0oSp-100" value="A2: Remove trade" style="rounded=1;whiteSpace=wrap;html=1;align=center;fillColor=#ffe6cc;strokeColor=#d79b00;" parent="64JzyqGMkA08n9KjyNon-1" vertex="1">
          <mxGeometry x="334" width="120" height="30" as="geometry" />
        </mxCell>
        <mxCell id="_ke7eIl3AvGKQpVB0oSp-101" value="or, if already was published:" style="text;html=1;align=center;verticalAlign=middle;resizable=0;points=[];autosize=1;strokeColor=none;" parent="64JzyqGMkA08n9KjyNon-1" vertex="1">
          <mxGeometry x="334" y="-20" width="160" height="20" as="geometry" />
        </mxCell>
        <mxCell id="_48AJxqkp_w9yxt09wJj-0" value="A5: Ignore" style="rounded=1;whiteSpace=wrap;html=1;align=center;fillColor=#ffe6cc;strokeColor=#d79b00;" parent="64JzyqGMkA08n9KjyNon-1" vertex="1">
          <mxGeometry x="721" y="-50" width="120" height="30" as="geometry" />
        </mxCell>
        <mxCell id="_48AJxqkp_w9yxt09wJj-3" value="A4: Cancel" style="rounded=1;whiteSpace=wrap;html=1;align=center;fillColor=#ffe6cc;strokeColor=#d79b00;" parent="64JzyqGMkA08n9KjyNon-1" vertex="1">
          <mxGeometry x="721" y="-100" width="120" height="30" as="geometry" />
        </mxCell>
        <mxCell id="_48AJxqkp_w9yxt09wJj-4" value="Time left: 10:00" style="rounded=1;whiteSpace=wrap;html=1;align=center;" parent="64JzyqGMkA08n9KjyNon-1" vertex="1">
          <mxGeometry x="851" y="-100" width="120" height="30" as="geometry" />
        </mxCell>
        <mxCell id="_48AJxqkp_w9yxt09wJj-5" value="or, if already requested:" style="text;html=1;align=center;verticalAlign=middle;resizable=0;points=[];autosize=1;strokeColor=none;" parent="64JzyqGMkA08n9KjyNon-1" vertex="1">
          <mxGeometry x="795" y="-120" width="140" height="20" as="geometry" />
        </mxCell>
        <mxCell id="_48AJxqkp_w9yxt09wJj-7" value="C1: Connect" style="rounded=1;whiteSpace=wrap;html=1;align=center;fillColor=#d5e8d4;strokeColor=#82b366;" parent="64JzyqGMkA08n9KjyNon-1" vertex="1">
          <mxGeometry x="49" y="490" width="120" height="30" as="geometry" />
        </mxCell>
        <mxCell id="_48AJxqkp_w9yxt09wJj-8" value="C2: Disconnect" style="rounded=1;whiteSpace=wrap;html=1;align=center;fillColor=#f8cecc;strokeColor=#b85450;" parent="64JzyqGMkA08n9KjyNon-1" vertex="1">
          <mxGeometry x="49" y="540" width="120" height="30" as="geometry" />
        </mxCell>
        <mxCell id="_48AJxqkp_w9yxt09wJj-10" style="edgeStyle=orthogonalEdgeStyle;rounded=0;orthogonalLoop=1;jettySize=auto;html=1;startArrow=none;startFill=0;verticalAlign=bottom;dashed=1;dashPattern=1 4;" parent="64JzyqGMkA08n9KjyNon-1" source="_48AJxqkp_w9yxt09wJj-9" target="_48AJxqkp_w9yxt09wJj-1" edge="1">
          <mxGeometry relative="1" as="geometry">
            <Array as="points">
              <mxPoint x="510" y="15" />
              <mxPoint x="510" y="15" />
            </Array>
          </mxGeometry>
        </mxCell>
        <mxCell id="_48AJxqkp_w9yxt09wJj-9" value="Back to Items List" style="rounded=1;whiteSpace=wrap;html=1;align=center;" parent="64JzyqGMkA08n9KjyNon-1" vertex="1">
          <mxGeometry x="540" width="120" height="30" as="geometry" />
        </mxCell>
        <mxCell id="_48AJxqkp_w9yxt09wJj-11" value="or, if already connected" style="text;html=1;align=center;verticalAlign=middle;resizable=0;points=[];autosize=1;strokeColor=none;" parent="64JzyqGMkA08n9KjyNon-1" vertex="1">
          <mxGeometry x="30" y="520" width="140" height="20" as="geometry" />
        </mxCell>
        <mxCell id="_ke7eIl3AvGKQpVB0oSp-76" style="edgeStyle=orthogonalEdgeStyle;rounded=0;orthogonalLoop=1;jettySize=auto;html=1;jumpStyle=arc;dashed=1;dashPattern=1 4;" parent="64JzyqGMkA08n9KjyNon-1" source="_ke7eIl3AvGKQpVB0oSp-9" target="_48AJxqkp_w9yxt09wJj-2" edge="1">
          <mxGeometry relative="1" as="geometry">
            <mxPoint x="500" y="230" as="targetPoint" />
            <Array as="points">
              <mxPoint x="490" y="120" />
              <mxPoint x="490" y="120" />
            </Array>
          </mxGeometry>
        </mxCell>
        <mxCell id="_48AJxqkp_w9yxt09wJj-12" value="Perv. offer" style="rounded=1;whiteSpace=wrap;html=1;align=center;dashed=1;dashPattern=1 4;" parent="64JzyqGMkA08n9KjyNon-1" vertex="1">
          <mxGeometry x="828.5" y="540" width="63" height="30" as="geometry" />
        </mxCell>
        <mxCell id="_48AJxqkp_w9yxt09wJj-13" value="Next offer" style="rounded=1;whiteSpace=wrap;html=1;align=center;" parent="64JzyqGMkA08n9KjyNon-1" vertex="1">
          <mxGeometry x="900" y="540" width="70" height="30" as="geometry" />
        </mxCell>
        <mxCell id="_48AJxqkp_w9yxt09wJj-15" value="Location (system)" style="rounded=0;whiteSpace=wrap;html=1;fillColor=#fff2cc;strokeColor=#d6b656;" parent="64JzyqGMkA08n9KjyNon-1" vertex="1">
          <mxGeometry x="250" y="520" width="210" height="30" as="geometry" />
        </mxCell>
        <mxCell id="_48AJxqkp_w9yxt09wJj-16" value="Contact information" style="rounded=0;whiteSpace=wrap;html=1;fillColor=#fff2cc;strokeColor=#d6b656;" parent="64JzyqGMkA08n9KjyNon-1" vertex="1">
          <mxGeometry x="250" y="550" width="210" height="30" as="geometry" />
        </mxCell>
        <mxCell id="_48AJxqkp_w9yxt09wJj-18" value="Calls reference:" style="shape=table;startSize=30;container=1;collapsible=0;childLayout=tableLayout;fixedRows=1;rowLines=0;fontStyle=1;align=center;pointerEvents=1;fillColor=#ffffff;" parent="64JzyqGMkA08n9KjyNon-1" vertex="1">
          <mxGeometry x="10" y="640" width="990" height="610" as="geometry" />
        </mxCell>
        <mxCell id="_48AJxqkp_w9yxt09wJj-19" value="" style="shape=partialRectangle;html=1;whiteSpace=wrap;collapsible=0;dropTarget=0;pointerEvents=1;fillColor=none;top=0;left=0;bottom=1;right=0;points=[[0,0.5],[1,0.5]];portConstraint=eastwest;" parent="_48AJxqkp_w9yxt09wJj-18" vertex="1">
          <mxGeometry y="30" width="990" height="30" as="geometry" />
        </mxCell>
        <mxCell id="_48AJxqkp_w9yxt09wJj-20" value="Action" style="shape=partialRectangle;html=1;whiteSpace=wrap;connectable=0;fillColor=none;top=0;left=0;bottom=0;right=0;overflow=hidden;pointerEvents=1;" parent="_48AJxqkp_w9yxt09wJj-19" vertex="1">
          <mxGeometry width="127" height="30" as="geometry" />
        </mxCell>
        <mxCell id="_48AJxqkp_w9yxt09wJj-21" value="Route" style="shape=partialRectangle;html=1;whiteSpace=wrap;connectable=0;fillColor=none;top=0;left=0;bottom=0;right=0;align=left;spacingLeft=6;overflow=hidden;pointerEvents=1;" parent="_48AJxqkp_w9yxt09wJj-19" vertex="1">
          <mxGeometry x="127" width="123" height="30" as="geometry" />
        </mxCell>
        <mxCell id="_48AJxqkp_w9yxt09wJj-53" value="Payload" style="shape=partialRectangle;html=1;whiteSpace=wrap;connectable=0;fillColor=none;top=0;left=0;bottom=0;right=0;align=left;spacingLeft=6;overflow=hidden;pointerEvents=1;" parent="_48AJxqkp_w9yxt09wJj-19" vertex="1">
          <mxGeometry x="250" width="470" height="30" as="geometry" />
        </mxCell>
        <mxCell id="_48AJxqkp_w9yxt09wJj-57" value="Return value" style="shape=partialRectangle;html=1;whiteSpace=wrap;connectable=0;fillColor=none;top=0;left=0;bottom=0;right=0;align=left;spacingLeft=6;overflow=hidden;pointerEvents=1;" parent="_48AJxqkp_w9yxt09wJj-19" vertex="1">
          <mxGeometry x="720" width="270" height="30" as="geometry" />
        </mxCell>
        <mxCell id="_48AJxqkp_w9yxt09wJj-22" value="" style="shape=partialRectangle;html=1;whiteSpace=wrap;collapsible=0;dropTarget=0;pointerEvents=1;fillColor=none;top=0;left=0;bottom=0;right=0;points=[[0,0.5],[1,0.5]];portConstraint=eastwest;" parent="_48AJxqkp_w9yxt09wJj-18" vertex="1">
          <mxGeometry y="60" width="990" height="30" as="geometry" />
        </mxCell>
        <mxCell id="_48AJxqkp_w9yxt09wJj-23" value="C1: Connect" style="shape=partialRectangle;html=1;whiteSpace=wrap;connectable=0;fillColor=none;top=0;left=0;bottom=0;right=0;overflow=hidden;pointerEvents=1;" parent="_48AJxqkp_w9yxt09wJj-22" vertex="1">
          <mxGeometry width="127" height="30" as="geometry" />
        </mxCell>
        <mxCell id="_48AJxqkp_w9yxt09wJj-24" value="$connect" style="shape=partialRectangle;html=1;whiteSpace=wrap;connectable=0;fillColor=none;top=0;left=0;bottom=0;right=0;align=left;spacingLeft=6;overflow=hidden;pointerEvents=1;" parent="_48AJxqkp_w9yxt09wJj-22" vertex="1">
          <mxGeometry x="127" width="123" height="30" as="geometry" />
        </mxCell>
        <mxCell id="_48AJxqkp_w9yxt09wJj-54" style="shape=partialRectangle;html=1;whiteSpace=wrap;connectable=0;fillColor=none;top=0;left=0;bottom=0;right=0;align=left;spacingLeft=6;overflow=hidden;pointerEvents=1;" parent="_48AJxqkp_w9yxt09wJj-22" vertex="1">
          <mxGeometry x="250" width="470" height="30" as="geometry" />
        </mxCell>
        <mxCell id="_48AJxqkp_w9yxt09wJj-58" style="shape=partialRectangle;html=1;whiteSpace=wrap;connectable=0;fillColor=none;top=0;left=0;bottom=0;right=0;align=left;spacingLeft=6;overflow=hidden;pointerEvents=1;" parent="_48AJxqkp_w9yxt09wJj-22" vertex="1">
          <mxGeometry x="720" width="270" height="30" as="geometry" />
        </mxCell>
        <mxCell id="_48AJxqkp_w9yxt09wJj-25" value="" style="shape=partialRectangle;html=1;whiteSpace=wrap;collapsible=0;dropTarget=0;pointerEvents=1;fillColor=none;top=0;left=0;bottom=0;right=0;points=[[0,0.5],[1,0.5]];portConstraint=eastwest;" parent="_48AJxqkp_w9yxt09wJj-18" vertex="1">
          <mxGeometry y="90" width="990" height="30" as="geometry" />
        </mxCell>
        <mxCell id="_48AJxqkp_w9yxt09wJj-26" value="C2: Disconnect" style="shape=partialRectangle;html=1;whiteSpace=wrap;connectable=0;fillColor=none;top=0;left=0;bottom=0;right=0;overflow=hidden;pointerEvents=1;" parent="_48AJxqkp_w9yxt09wJj-25" vertex="1">
          <mxGeometry width="127" height="30" as="geometry" />
        </mxCell>
        <mxCell id="_48AJxqkp_w9yxt09wJj-27" value="$disconnect" style="shape=partialRectangle;html=1;whiteSpace=wrap;connectable=0;fillColor=none;top=0;left=0;bottom=0;right=0;align=left;spacingLeft=6;overflow=hidden;pointerEvents=1;" parent="_48AJxqkp_w9yxt09wJj-25" vertex="1">
          <mxGeometry x="127" width="123" height="30" as="geometry" />
        </mxCell>
        <mxCell id="_48AJxqkp_w9yxt09wJj-55" style="shape=partialRectangle;html=1;whiteSpace=wrap;connectable=0;fillColor=none;top=0;left=0;bottom=0;right=0;align=left;spacingLeft=6;overflow=hidden;pointerEvents=1;" parent="_48AJxqkp_w9yxt09wJj-25" vertex="1">
          <mxGeometry x="250" width="470" height="30" as="geometry" />
        </mxCell>
        <mxCell id="_48AJxqkp_w9yxt09wJj-59" style="shape=partialRectangle;html=1;whiteSpace=wrap;connectable=0;fillColor=none;top=0;left=0;bottom=0;right=0;align=left;spacingLeft=6;overflow=hidden;pointerEvents=1;" parent="_48AJxqkp_w9yxt09wJj-25" vertex="1">
          <mxGeometry x="720" width="270" height="30" as="geometry" />
        </mxCell>
        <mxCell id="_48AJxqkp_w9yxt09wJj-49" value="" style="shape=partialRectangle;html=1;whiteSpace=wrap;collapsible=0;dropTarget=0;pointerEvents=1;fillColor=none;top=0;left=0;bottom=0;right=0;points=[[0,0.5],[1,0.5]];portConstraint=eastwest;" parent="_48AJxqkp_w9yxt09wJj-18" vertex="1">
          <mxGeometry y="120" width="990" height="170" as="geometry" />
        </mxCell>
        <mxCell id="_48AJxqkp_w9yxt09wJj-50" value="A1: Publish trade" style="shape=partialRectangle;html=1;whiteSpace=wrap;connectable=0;fillColor=none;top=0;left=0;bottom=0;right=0;overflow=hidden;pointerEvents=1;" parent="_48AJxqkp_w9yxt09wJj-49" vertex="1">
          <mxGeometry width="127" height="170" as="geometry" />
        </mxCell>
        <mxCell id="_48AJxqkp_w9yxt09wJj-51" value="offer" style="shape=partialRectangle;html=1;whiteSpace=wrap;connectable=0;fillColor=none;top=0;left=0;bottom=0;right=0;align=left;spacingLeft=6;overflow=hidden;pointerEvents=1;" parent="_48AJxqkp_w9yxt09wJj-49" vertex="1">
          <mxGeometry x="127" width="123" height="170" as="geometry" />
        </mxCell>
        <mxCell id="_48AJxqkp_w9yxt09wJj-56" value="&lt;span&gt;{&amp;nbsp;&lt;/span&gt;&lt;span&gt;method: &#39;&lt;/span&gt;&lt;b&gt;publishoffer&lt;/b&gt;&lt;span&gt;&#39;,&lt;br&gt;&lt;/span&gt;&lt;span&gt;&amp;nbsp; payload: {&lt;/span&gt;&lt;span&gt;&lt;br&gt;&lt;/span&gt;&lt;blockquote style=&quot;margin: 0 0 0 40px ; border: none ; padding: 0px&quot;&gt;&lt;/blockquote&gt;&lt;span&gt;&amp;nbsp; &amp;nbsp; system: string,&lt;/span&gt;&lt;br&gt;&lt;blockquote style=&quot;margin: 0 0 0 40px ; border: none ; padding: 0px&quot;&gt;&lt;/blockquote&gt;&lt;span&gt;&amp;nbsp; &amp;nbsp; offer: [{&lt;/span&gt;&lt;br&gt;&lt;blockquote style=&quot;margin: 0 0 0 40px ; border: none ; padding: 0px&quot;&gt;&lt;/blockquote&gt;&lt;span style=&quot;white-space: pre&quot;&gt; &lt;/span&gt;&lt;span&gt;material: string,&lt;/span&gt;&lt;br&gt;&lt;blockquote style=&quot;margin: 0 0 0 40px ; border: none ; padding: 0px&quot;&gt;&lt;/blockquote&gt;&lt;span style=&quot;white-space: pre&quot;&gt; &lt;/span&gt;&lt;span&gt;demand: number,&lt;/span&gt;&lt;br&gt;&lt;blockquote style=&quot;margin: 0 0 0 40px ; border: none ; padding: 0px&quot;&gt;&lt;/blockquote&gt;&lt;span style=&quot;white-space: pre&quot;&gt; &lt;/span&gt;&lt;span&gt;supply: number&lt;/span&gt;&lt;br&gt;&amp;nbsp; &amp;nbsp; }]&lt;br&gt;&lt;span&gt;&amp;nbsp; }&lt;br&gt;&lt;/span&gt;&lt;span&gt;}&lt;/span&gt;" style="shape=partialRectangle;html=1;whiteSpace=wrap;connectable=0;fillColor=none;top=0;left=0;bottom=0;right=0;align=left;spacingLeft=6;overflow=hidden;pointerEvents=1;" parent="_48AJxqkp_w9yxt09wJj-49" vertex="1">
          <mxGeometry x="250" width="470" height="170" as="geometry" />
        </mxCell>
        <mxCell id="_48AJxqkp_w9yxt09wJj-60" value="&lt;span&gt;{ connectionid: string }&lt;/span&gt;" style="shape=partialRectangle;html=1;whiteSpace=wrap;connectable=0;fillColor=none;top=0;left=0;bottom=0;right=0;align=left;spacingLeft=6;overflow=hidden;pointerEvents=1;" parent="_48AJxqkp_w9yxt09wJj-49" vertex="1">
          <mxGeometry x="720" width="270" height="170" as="geometry" />
        </mxCell>
        <mxCell id="_48AJxqkp_w9yxt09wJj-61" style="shape=partialRectangle;html=1;whiteSpace=wrap;collapsible=0;dropTarget=0;pointerEvents=1;fillColor=none;top=0;left=0;bottom=0;right=0;points=[[0,0.5],[1,0.5]];portConstraint=eastwest;" parent="_48AJxqkp_w9yxt09wJj-18" vertex="1">
          <mxGeometry y="290" width="990" height="60" as="geometry" />
        </mxCell>
        <mxCell id="_48AJxqkp_w9yxt09wJj-62" value="A0: Reload" style="shape=partialRectangle;html=1;whiteSpace=wrap;connectable=0;fillColor=none;top=0;left=0;bottom=0;right=0;overflow=hidden;pointerEvents=1;" parent="_48AJxqkp_w9yxt09wJj-61" vertex="1">
          <mxGeometry width="127" height="60" as="geometry" />
        </mxCell>
        <mxCell id="_48AJxqkp_w9yxt09wJj-63" value="offer" style="shape=partialRectangle;html=1;whiteSpace=wrap;connectable=0;fillColor=none;top=0;left=0;bottom=0;right=0;align=left;spacingLeft=6;overflow=hidden;pointerEvents=1;" parent="_48AJxqkp_w9yxt09wJj-61" vertex="1">
          <mxGeometry x="127" width="123" height="60" as="geometry" />
        </mxCell>
        <mxCell id="_48AJxqkp_w9yxt09wJj-64" value="&lt;span&gt;{&amp;nbsp;&lt;/span&gt;&lt;span&gt;method: &#39;&lt;/span&gt;&lt;b&gt;getoffers&lt;/b&gt;&lt;span&gt;&#39;&amp;nbsp;&lt;/span&gt;&lt;span&gt;}&lt;/span&gt;" style="shape=partialRectangle;html=1;whiteSpace=wrap;connectable=0;fillColor=none;top=0;left=0;bottom=0;right=0;align=left;spacingLeft=6;overflow=hidden;pointerEvents=1;" parent="_48AJxqkp_w9yxt09wJj-61" vertex="1">
          <mxGeometry x="250" width="470" height="60" as="geometry" />
        </mxCell>
        <mxCell id="_48AJxqkp_w9yxt09wJj-65" value="&lt;span&gt;{} // offers delivered via notifications one by one&lt;br&gt;&lt;/span&gt;" style="shape=partialRectangle;html=1;whiteSpace=wrap;connectable=0;fillColor=none;top=0;left=0;bottom=0;right=0;align=left;spacingLeft=6;overflow=hidden;pointerEvents=1;" parent="_48AJxqkp_w9yxt09wJj-61" vertex="1">
          <mxGeometry x="720" width="270" height="60" as="geometry" />
        </mxCell>
        <mxCell id="_48AJxqkp_w9yxt09wJj-66" style="shape=partialRectangle;html=1;whiteSpace=wrap;collapsible=0;dropTarget=0;pointerEvents=1;fillColor=none;top=0;left=0;bottom=0;right=0;points=[[0,0.5],[1,0.5]];portConstraint=eastwest;" parent="_48AJxqkp_w9yxt09wJj-18" vertex="1">
          <mxGeometry y="350" width="990" height="50" as="geometry" />
        </mxCell>
        <mxCell id="_48AJxqkp_w9yxt09wJj-67" value="A2: Remove trade" style="shape=partialRectangle;html=1;whiteSpace=wrap;connectable=0;fillColor=none;top=0;left=0;bottom=0;right=0;overflow=hidden;pointerEvents=1;" parent="_48AJxqkp_w9yxt09wJj-66" vertex="1">
          <mxGeometry width="127" height="50" as="geometry" />
        </mxCell>
        <mxCell id="_48AJxqkp_w9yxt09wJj-68" value="offer" style="shape=partialRectangle;html=1;whiteSpace=wrap;connectable=0;fillColor=none;top=0;left=0;bottom=0;right=0;align=left;spacingLeft=6;overflow=hidden;pointerEvents=1;" parent="_48AJxqkp_w9yxt09wJj-66" vertex="1">
          <mxGeometry x="127" width="123" height="50" as="geometry" />
        </mxCell>
        <mxCell id="_48AJxqkp_w9yxt09wJj-69" value="{&amp;nbsp;&lt;span&gt;method: &#39;&lt;/span&gt;&lt;b&gt;removeoffer&lt;/b&gt;&lt;span&gt;&#39;&amp;nbsp;&lt;/span&gt;}" style="shape=partialRectangle;html=1;whiteSpace=wrap;connectable=0;fillColor=none;top=0;left=0;bottom=0;right=0;align=left;spacingLeft=6;overflow=hidden;pointerEvents=1;" parent="_48AJxqkp_w9yxt09wJj-66" vertex="1">
          <mxGeometry x="250" width="470" height="50" as="geometry" />
        </mxCell>
        <mxCell id="_48AJxqkp_w9yxt09wJj-70" value="{}" style="shape=partialRectangle;html=1;whiteSpace=wrap;connectable=0;fillColor=none;top=0;left=0;bottom=0;right=0;align=left;spacingLeft=6;overflow=hidden;pointerEvents=1;" parent="_48AJxqkp_w9yxt09wJj-66" vertex="1">
          <mxGeometry x="720" width="270" height="50" as="geometry" />
        </mxCell>
        <mxCell id="_48AJxqkp_w9yxt09wJj-71" style="shape=partialRectangle;html=1;whiteSpace=wrap;collapsible=0;dropTarget=0;pointerEvents=1;fillColor=none;top=0;left=0;bottom=0;right=0;points=[[0,0.5],[1,0.5]];portConstraint=eastwest;" parent="_48AJxqkp_w9yxt09wJj-18" vertex="1">
          <mxGeometry y="400" width="990" height="30" as="geometry" />
        </mxCell>
        <mxCell id="_48AJxqkp_w9yxt09wJj-72" value="A3: Request contact" style="shape=partialRectangle;html=1;whiteSpace=wrap;connectable=0;fillColor=none;top=0;left=0;bottom=0;right=0;overflow=hidden;pointerEvents=1;" parent="_48AJxqkp_w9yxt09wJj-71" vertex="1">
          <mxGeometry width="127" height="30" as="geometry" />
        </mxCell>
        <mxCell id="_48AJxqkp_w9yxt09wJj-73" value="requestcontact" style="shape=partialRectangle;html=1;whiteSpace=wrap;connectable=0;fillColor=none;top=0;left=0;bottom=0;right=0;align=left;spacingLeft=6;overflow=hidden;pointerEvents=1;" parent="_48AJxqkp_w9yxt09wJj-71" vertex="1">
          <mxGeometry x="127" width="123" height="30" as="geometry" />
        </mxCell>
        <mxCell id="_48AJxqkp_w9yxt09wJj-74" value="&lt;span&gt;{myofferid: string,&lt;/span&gt;&amp;nbsp;matchofferid: string}&lt;span&gt;&lt;br&gt;&lt;/span&gt;" style="shape=partialRectangle;html=1;whiteSpace=wrap;connectable=0;fillColor=none;top=0;left=0;bottom=0;right=0;align=left;spacingLeft=6;overflow=hidden;pointerEvents=1;" parent="_48AJxqkp_w9yxt09wJj-71" vertex="1">
          <mxGeometry x="250" width="470" height="30" as="geometry" />
        </mxCell>
        <mxCell id="_48AJxqkp_w9yxt09wJj-75" value="??" style="shape=partialRectangle;html=1;whiteSpace=wrap;connectable=0;fillColor=none;top=0;left=0;bottom=0;right=0;align=left;spacingLeft=6;overflow=hidden;pointerEvents=1;" parent="_48AJxqkp_w9yxt09wJj-71" vertex="1">
          <mxGeometry x="720" width="270" height="30" as="geometry" />
        </mxCell>
        <mxCell id="_48AJxqkp_w9yxt09wJj-79" style="shape=partialRectangle;html=1;whiteSpace=wrap;collapsible=0;dropTarget=0;pointerEvents=1;fillColor=none;top=0;left=0;bottom=0;right=0;points=[[0,0.5],[1,0.5]];portConstraint=eastwest;" parent="_48AJxqkp_w9yxt09wJj-18" vertex="1">
          <mxGeometry y="430" width="990" height="30" as="geometry" />
        </mxCell>
        <mxCell id="_48AJxqkp_w9yxt09wJj-80" value="A4: Cancel Contact Request" style="shape=partialRectangle;html=1;whiteSpace=wrap;connectable=0;fillColor=none;top=0;left=0;bottom=0;right=0;overflow=hidden;pointerEvents=1;" parent="_48AJxqkp_w9yxt09wJj-79" vertex="1">
          <mxGeometry width="127" height="30" as="geometry" />
        </mxCell>
        <mxCell id="_48AJxqkp_w9yxt09wJj-81" value="requestcancel" style="shape=partialRectangle;html=1;whiteSpace=wrap;connectable=0;fillColor=none;top=0;left=0;bottom=0;right=0;align=left;spacingLeft=6;overflow=hidden;pointerEvents=1;" parent="_48AJxqkp_w9yxt09wJj-79" vertex="1">
          <mxGeometry x="127" width="123" height="30" as="geometry" />
        </mxCell>
        <mxCell id="_48AJxqkp_w9yxt09wJj-82" value="&lt;span&gt;{myofferid: string,&lt;/span&gt;&amp;nbsp;matchofferid: string}&lt;span&gt;&lt;br&gt;&lt;/span&gt;" style="shape=partialRectangle;html=1;whiteSpace=wrap;connectable=0;fillColor=none;top=0;left=0;bottom=0;right=0;align=left;spacingLeft=6;overflow=hidden;pointerEvents=1;" parent="_48AJxqkp_w9yxt09wJj-79" vertex="1">
          <mxGeometry x="250" width="470" height="30" as="geometry" />
        </mxCell>
        <mxCell id="_48AJxqkp_w9yxt09wJj-83" value="??" style="shape=partialRectangle;html=1;whiteSpace=wrap;connectable=0;fillColor=none;top=0;left=0;bottom=0;right=0;align=left;spacingLeft=6;overflow=hidden;pointerEvents=1;" parent="_48AJxqkp_w9yxt09wJj-79" vertex="1">
          <mxGeometry x="720" width="270" height="30" as="geometry" />
        </mxCell>
        <mxCell id="_48AJxqkp_w9yxt09wJj-84" style="shape=partialRectangle;html=1;whiteSpace=wrap;collapsible=0;dropTarget=0;pointerEvents=1;fillColor=none;top=0;left=0;bottom=0;right=0;points=[[0,0.5],[1,0.5]];portConstraint=eastwest;" parent="_48AJxqkp_w9yxt09wJj-18" vertex="1">
          <mxGeometry y="460" width="990" height="30" as="geometry" />
        </mxCell>
        <mxCell id="_48AJxqkp_w9yxt09wJj-85" value="A7: Share contact" style="shape=partialRectangle;html=1;whiteSpace=wrap;connectable=0;fillColor=none;top=0;left=0;bottom=0;right=0;overflow=hidden;pointerEvents=1;" parent="_48AJxqkp_w9yxt09wJj-84" vertex="1">
          <mxGeometry width="127" height="30" as="geometry" />
        </mxCell>
        <mxCell id="_48AJxqkp_w9yxt09wJj-86" value="requestaccept" style="shape=partialRectangle;html=1;whiteSpace=wrap;connectable=0;fillColor=none;top=0;left=0;bottom=0;right=0;align=left;spacingLeft=6;overflow=hidden;pointerEvents=1;" parent="_48AJxqkp_w9yxt09wJj-84" vertex="1">
          <mxGeometry x="127" width="123" height="30" as="geometry" />
        </mxCell>
        <mxCell id="_48AJxqkp_w9yxt09wJj-87" value="&lt;span&gt;{myofferid: string, matchofferid: string, contactinfo: string}&lt;/span&gt;" style="shape=partialRectangle;html=1;whiteSpace=wrap;connectable=0;fillColor=none;top=0;left=0;bottom=0;right=0;align=left;spacingLeft=6;overflow=hidden;pointerEvents=1;" parent="_48AJxqkp_w9yxt09wJj-84" vertex="1">
          <mxGeometry x="250" width="470" height="30" as="geometry" />
        </mxCell>
        <mxCell id="_48AJxqkp_w9yxt09wJj-88" value="??" style="shape=partialRectangle;html=1;whiteSpace=wrap;connectable=0;fillColor=none;top=0;left=0;bottom=0;right=0;align=left;spacingLeft=6;overflow=hidden;pointerEvents=1;" parent="_48AJxqkp_w9yxt09wJj-84" vertex="1">
          <mxGeometry x="720" width="270" height="30" as="geometry" />
        </mxCell>
        <mxCell id="_48AJxqkp_w9yxt09wJj-89" style="shape=partialRectangle;html=1;whiteSpace=wrap;collapsible=0;dropTarget=0;pointerEvents=1;fillColor=none;top=0;left=0;bottom=0;right=0;points=[[0,0.5],[1,0.5]];portConstraint=eastwest;" parent="_48AJxqkp_w9yxt09wJj-18" vertex="1">
          <mxGeometry y="490" width="990" height="30" as="geometry" />
        </mxCell>
        <mxCell id="_48AJxqkp_w9yxt09wJj-90" value="A5: Ignore Contact Request" style="shape=partialRectangle;html=1;whiteSpace=wrap;connectable=0;fillColor=none;top=0;left=0;bottom=0;right=0;overflow=hidden;pointerEvents=1;" parent="_48AJxqkp_w9yxt09wJj-89" vertex="1">
          <mxGeometry width="127" height="30" as="geometry" />
        </mxCell>
        <mxCell id="_48AJxqkp_w9yxt09wJj-91" value="requestignore" style="shape=partialRectangle;html=1;whiteSpace=wrap;connectable=0;fillColor=none;top=0;left=0;bottom=0;right=0;align=left;spacingLeft=6;overflow=hidden;pointerEvents=1;" parent="_48AJxqkp_w9yxt09wJj-89" vertex="1">
          <mxGeometry x="127" width="123" height="30" as="geometry" />
        </mxCell>
        <mxCell id="_48AJxqkp_w9yxt09wJj-92" value="&lt;span&gt;{myofferid: string,&lt;/span&gt;&lt;span&gt;&amp;nbsp;matchofferid: string}&lt;/span&gt;" style="shape=partialRectangle;html=1;whiteSpace=wrap;connectable=0;fillColor=none;top=0;left=0;bottom=0;right=0;align=left;spacingLeft=6;overflow=hidden;pointerEvents=1;" parent="_48AJxqkp_w9yxt09wJj-89" vertex="1">
          <mxGeometry x="250" width="470" height="30" as="geometry" />
        </mxCell>
        <mxCell id="_48AJxqkp_w9yxt09wJj-93" value="&lt;span&gt;??&lt;/span&gt;" style="shape=partialRectangle;html=1;whiteSpace=wrap;connectable=0;fillColor=none;top=0;left=0;bottom=0;right=0;align=left;spacingLeft=6;overflow=hidden;pointerEvents=1;" parent="_48AJxqkp_w9yxt09wJj-89" vertex="1">
          <mxGeometry x="720" width="270" height="30" as="geometry" />
        </mxCell>
        <mxCell id="_48AJxqkp_w9yxt09wJj-94" style="shape=partialRectangle;html=1;whiteSpace=wrap;collapsible=0;dropTarget=0;pointerEvents=1;fillColor=none;top=0;left=0;bottom=0;right=0;points=[[0,0.5],[1,0.5]];portConstraint=eastwest;" parent="_48AJxqkp_w9yxt09wJj-18" vertex="1">
          <mxGeometry y="520" width="990" height="30" as="geometry" />
        </mxCell>
        <mxCell id="_48AJxqkp_w9yxt09wJj-95" value="A8: Complete Trade" style="shape=partialRectangle;html=1;whiteSpace=wrap;connectable=0;fillColor=none;top=0;left=0;bottom=0;right=0;overflow=hidden;pointerEvents=1;" parent="_48AJxqkp_w9yxt09wJj-94" vertex="1">
          <mxGeometry width="127" height="30" as="geometry" />
        </mxCell>
        <mxCell id="_48AJxqkp_w9yxt09wJj-96" value="tradecomplete" style="shape=partialRectangle;html=1;whiteSpace=wrap;connectable=0;fillColor=none;top=0;left=0;bottom=0;right=0;align=left;spacingLeft=6;overflow=hidden;pointerEvents=1;" parent="_48AJxqkp_w9yxt09wJj-94" vertex="1">
          <mxGeometry x="127" width="123" height="30" as="geometry" />
        </mxCell>
        <mxCell id="_48AJxqkp_w9yxt09wJj-97" value="&lt;span&gt;{myofferid: string,&lt;/span&gt;&lt;span&gt;&amp;nbsp;matchofferid: string}&lt;/span&gt;" style="shape=partialRectangle;html=1;whiteSpace=wrap;connectable=0;fillColor=none;top=0;left=0;bottom=0;right=0;align=left;spacingLeft=6;overflow=hidden;pointerEvents=1;" parent="_48AJxqkp_w9yxt09wJj-94" vertex="1">
          <mxGeometry x="250" width="470" height="30" as="geometry" />
        </mxCell>
        <mxCell id="_48AJxqkp_w9yxt09wJj-98" value="&lt;span&gt;??&lt;/span&gt;" style="shape=partialRectangle;html=1;whiteSpace=wrap;connectable=0;fillColor=none;top=0;left=0;bottom=0;right=0;align=left;spacingLeft=6;overflow=hidden;pointerEvents=1;" parent="_48AJxqkp_w9yxt09wJj-94" vertex="1">
          <mxGeometry x="720" width="270" height="30" as="geometry" />
        </mxCell>
        <mxCell id="_48AJxqkp_w9yxt09wJj-99" style="shape=partialRectangle;html=1;whiteSpace=wrap;collapsible=0;dropTarget=0;pointerEvents=1;fillColor=none;top=0;left=0;bottom=0;right=0;points=[[0,0.5],[1,0.5]];portConstraint=eastwest;" parent="_48AJxqkp_w9yxt09wJj-18" vertex="1">
          <mxGeometry y="550" width="990" height="30" as="geometry" />
        </mxCell>
        <mxCell id="_48AJxqkp_w9yxt09wJj-100" value="A6: Abandon Trade" style="shape=partialRectangle;html=1;whiteSpace=wrap;connectable=0;fillColor=none;top=0;left=0;bottom=0;right=0;overflow=hidden;pointerEvents=1;" parent="_48AJxqkp_w9yxt09wJj-99" vertex="1">
          <mxGeometry width="127" height="30" as="geometry" />
        </mxCell>
        <mxCell id="_48AJxqkp_w9yxt09wJj-101" value="tradeabandone" style="shape=partialRectangle;html=1;whiteSpace=wrap;connectable=0;fillColor=none;top=0;left=0;bottom=0;right=0;align=left;spacingLeft=6;overflow=hidden;pointerEvents=1;" parent="_48AJxqkp_w9yxt09wJj-99" vertex="1">
          <mxGeometry x="127" width="123" height="30" as="geometry" />
        </mxCell>
        <mxCell id="_48AJxqkp_w9yxt09wJj-102" value="&lt;span&gt;{myofferid: string,&lt;/span&gt;&lt;span&gt;&amp;nbsp;matchofferid: string}&lt;/span&gt;" style="shape=partialRectangle;html=1;whiteSpace=wrap;connectable=0;fillColor=none;top=0;left=0;bottom=0;right=0;align=left;spacingLeft=6;overflow=hidden;pointerEvents=1;" parent="_48AJxqkp_w9yxt09wJj-99" vertex="1">
          <mxGeometry x="250" width="470" height="30" as="geometry" />
        </mxCell>
        <mxCell id="_48AJxqkp_w9yxt09wJj-103" value="&lt;span&gt;??&lt;/span&gt;" style="shape=partialRectangle;html=1;whiteSpace=wrap;connectable=0;fillColor=none;top=0;left=0;bottom=0;right=0;align=left;spacingLeft=6;overflow=hidden;pointerEvents=1;" parent="_48AJxqkp_w9yxt09wJj-99" vertex="1">
          <mxGeometry x="720" width="270" height="30" as="geometry" />
        </mxCell>
        <mxCell id="_48AJxqkp_w9yxt09wJj-52" value="Frontier ID" style="rounded=0;whiteSpace=wrap;html=1;fillColor=#fff2cc;strokeColor=#d6b656;" parent="64JzyqGMkA08n9KjyNon-1" vertex="1">
          <mxGeometry x="250" y="490" width="210" height="30" as="geometry" />
        </mxCell>
        <mxCell id="_48AJxqkp_w9yxt09wJj-76" value="Custom Item Name" style="rounded=0;whiteSpace=wrap;html=1;fillColor=#fff2cc;strokeColor=#d6b656;" parent="64JzyqGMkA08n9KjyNon-1" vertex="1">
          <mxGeometry x="40" y="430" width="210" height="30" as="geometry" />
        </mxCell>
        <mxCell id="_48AJxqkp_w9yxt09wJj-77" value="Add" style="rounded=1;whiteSpace=wrap;html=1;align=center;" parent="64JzyqGMkA08n9KjyNon-1" vertex="1">
          <mxGeometry x="260" y="430" width="120" height="30" as="geometry" />
        </mxCell>
        <mxCell id="_48AJxqkp_w9yxt09wJj-78" value="Delete Item" style="rounded=1;whiteSpace=wrap;html=1;align=center;" parent="64JzyqGMkA08n9KjyNon-1" vertex="1">
          <mxGeometry x="540" y="540" width="120" height="30" as="geometry" />
        </mxCell>
        <mxCell id="9ILWwuEj69nt0XErwjZL-0" value="Notifications reference:" style="shape=table;startSize=30;container=1;collapsible=0;childLayout=tableLayout;fixedRows=1;rowLines=0;fontStyle=1;align=center;pointerEvents=1;fillColor=#ffffff;" parent="64JzyqGMkA08n9KjyNon-1" vertex="1">
          <mxGeometry x="10" y="1230" width="867" height="280" as="geometry" />
        </mxCell>
        <mxCell id="9ILWwuEj69nt0XErwjZL-1" value="" style="shape=partialRectangle;html=1;whiteSpace=wrap;collapsible=0;dropTarget=0;pointerEvents=1;fillColor=none;top=0;left=0;bottom=1;right=0;points=[[0,0.5],[1,0.5]];portConstraint=eastwest;" parent="9ILWwuEj69nt0XErwjZL-0" vertex="1">
          <mxGeometry y="30" width="867" height="30" as="geometry" />
        </mxCell>
        <mxCell id="9ILWwuEj69nt0XErwjZL-2" value="Notification" style="shape=partialRectangle;html=1;whiteSpace=wrap;connectable=0;fillColor=none;top=0;left=0;bottom=0;right=0;overflow=hidden;pointerEvents=1;" parent="9ILWwuEj69nt0XErwjZL-1" vertex="1">
          <mxGeometry width="127" height="30" as="geometry" />
        </mxCell>
        <mxCell id="9ILWwuEj69nt0XErwjZL-4" value="Payload" style="shape=partialRectangle;html=1;whiteSpace=wrap;connectable=0;fillColor=none;top=0;left=0;bottom=0;right=0;align=left;spacingLeft=6;overflow=hidden;pointerEvents=1;" parent="9ILWwuEj69nt0XErwjZL-1" vertex="1">
          <mxGeometry x="127" width="470" height="30" as="geometry" />
        </mxCell>
        <mxCell id="9ILWwuEj69nt0XErwjZL-5" value="Description" style="shape=partialRectangle;html=1;whiteSpace=wrap;connectable=0;fillColor=none;top=0;left=0;bottom=0;right=0;align=left;spacingLeft=6;overflow=hidden;pointerEvents=1;" parent="9ILWwuEj69nt0XErwjZL-1" vertex="1">
          <mxGeometry x="597" width="270" height="30" as="geometry" />
        </mxCell>
        <mxCell id="9ILWwuEj69nt0XErwjZL-6" value="" style="shape=partialRectangle;html=1;whiteSpace=wrap;collapsible=0;dropTarget=0;pointerEvents=1;fillColor=none;top=0;left=0;bottom=0;right=0;points=[[0,0.5],[1,0.5]];portConstraint=eastwest;" parent="9ILWwuEj69nt0XErwjZL-0" vertex="1">
          <mxGeometry y="60" width="867" height="30" as="geometry" />
        </mxCell>
        <mxCell id="9ILWwuEj69nt0XErwjZL-7" value="Offer dropped" style="shape=partialRectangle;html=1;whiteSpace=wrap;connectable=0;fillColor=none;top=0;left=0;bottom=0;right=0;overflow=hidden;pointerEvents=1;" parent="9ILWwuEj69nt0XErwjZL-6" vertex="1">
          <mxGeometry width="127" height="30" as="geometry" />
        </mxCell>
        <mxCell id="9ILWwuEj69nt0XErwjZL-9" value="{ dropoffer: string }" style="shape=partialRectangle;html=1;whiteSpace=wrap;connectable=0;fillColor=none;top=0;left=0;bottom=0;right=0;align=left;spacingLeft=6;overflow=hidden;pointerEvents=1;" parent="9ILWwuEj69nt0XErwjZL-6" vertex="1">
          <mxGeometry x="127" width="470" height="30" as="geometry" />
        </mxCell>
        <mxCell id="9ILWwuEj69nt0XErwjZL-10" value="Offer was dropped by a user or user was disconnected" style="shape=partialRectangle;html=1;whiteSpace=wrap;connectable=0;fillColor=none;top=0;left=0;bottom=0;right=0;align=left;spacingLeft=6;overflow=hidden;pointerEvents=1;" parent="9ILWwuEj69nt0XErwjZL-6" vertex="1">
          <mxGeometry x="597" width="270" height="30" as="geometry" />
        </mxCell>
        <mxCell id="9ILWwuEj69nt0XErwjZL-61" style="shape=partialRectangle;html=1;whiteSpace=wrap;collapsible=0;dropTarget=0;pointerEvents=1;fillColor=none;top=0;left=0;bottom=0;right=0;points=[[0,0.5],[1,0.5]];portConstraint=eastwest;" parent="9ILWwuEj69nt0XErwjZL-0" vertex="1">
          <mxGeometry y="90" width="867" height="160" as="geometry" />
        </mxCell>
        <mxCell id="9ILWwuEj69nt0XErwjZL-62" value="Inbound offer" style="shape=partialRectangle;html=1;whiteSpace=wrap;connectable=0;fillColor=none;top=0;left=0;bottom=0;right=0;overflow=hidden;pointerEvents=1;" parent="9ILWwuEj69nt0XErwjZL-61" vertex="1">
          <mxGeometry width="127" height="160" as="geometry" />
        </mxCell>
        <mxCell id="9ILWwuEj69nt0XErwjZL-63" value="&lt;div&gt;{&amp;nbsp;&lt;span&gt;connectionId: string,&lt;/span&gt;&lt;/div&gt;&lt;div&gt;&amp;nbsp; offer:&amp;nbsp;&lt;span&gt;{&lt;/span&gt;&lt;/div&gt;&lt;div&gt;&lt;span style=&quot;white-space: pre&quot;&gt; &lt;/span&gt;system: string,&lt;/div&gt;&lt;div&gt;&lt;span style=&quot;white-space: pre&quot;&gt; &lt;/span&gt;offer: [{&lt;/div&gt;&lt;div&gt;&lt;span style=&quot;white-space: pre&quot;&gt; &lt;/span&gt;&amp;nbsp; material: string,&lt;/div&gt;&lt;div&gt;&lt;span style=&quot;white-space: pre&quot;&gt; &lt;/span&gt;&amp;nbsp; demand: number,&lt;/div&gt;&lt;div&gt;&lt;span style=&quot;white-space: pre&quot;&gt; &lt;/span&gt;&amp;nbsp; supply: number&lt;/div&gt;&lt;div&gt;&lt;span style=&quot;white-space: pre&quot;&gt; &lt;/span&gt;}]&lt;/div&gt;&lt;div&gt;&amp;nbsp; }&lt;/div&gt;&lt;div&gt;}&lt;/div&gt;" style="shape=partialRectangle;html=1;whiteSpace=wrap;connectable=0;fillColor=none;top=0;left=0;bottom=0;right=0;align=left;spacingLeft=6;overflow=hidden;pointerEvents=1;" parent="9ILWwuEj69nt0XErwjZL-61" vertex="1">
          <mxGeometry x="127" width="470" height="160" as="geometry" />
        </mxCell>
        <mxCell id="9ILWwuEj69nt0XErwjZL-64" value="Each offer is attributed with owner&#39;s connection id for further operations and matching" style="shape=partialRectangle;html=1;whiteSpace=wrap;connectable=0;fillColor=none;top=0;left=0;bottom=0;right=0;align=left;spacingLeft=6;overflow=hidden;pointerEvents=1;" parent="9ILWwuEj69nt0XErwjZL-61" vertex="1">
          <mxGeometry x="597" width="270" height="160" as="geometry" />
        </mxCell>
      </root>
    </mxGraphModel>
  </diagram>
  <diagram id="z0ve6zFhTWT6_saV-5LE" name="Datamodel">
    <mxGraphModel dx="1278" dy="821" grid="1" gridSize="10" guides="1" tooltips="1" connect="1" arrows="1" fold="1" page="1" pageScale="1" pageWidth="827" pageHeight="1169" math="0" shadow="0">
      <root>
        <mxCell id="sz_QXyadWy3CbSNMM9F9-0" />
        <mxCell id="sz_QXyadWy3CbSNMM9F9-1" parent="sz_QXyadWy3CbSNMM9F9-0" />
        <mxCell id="9t4k6BtI16UrQ4hQ3sCr-0" value="&lt;h1&gt;Ref. UI data&lt;/h1&gt;&lt;h1&gt;&lt;p style=&quot;font-size: 12px ; font-weight: 400&quot;&gt;For now, only one offer is maintained by a user at a time. Each connection represents at max one offer or none if user didn&#39;t offer anything yet.&lt;br&gt;App knows about user&#39;s demand and supply (own offer) and about all offers from other connected users.&lt;br&gt;Offers are broadcasted via secured web socket when they posted.&lt;br&gt;When a user disconnects from the backend his offer removed from central register and a message is broadcasted to all connected users so their apps can process a removal and update numbers.&lt;/p&gt;&lt;/h1&gt;" style="text;html=1;strokeColor=none;fillColor=none;spacing=5;spacingTop=-20;whiteSpace=wrap;overflow=hidden;rounded=0;" parent="sz_QXyadWy3CbSNMM9F9-1" vertex="1">
          <mxGeometry x="30" y="31" width="770" height="139" as="geometry" />
        </mxCell>
        <mxCell id="Xj6VFuCN3mnKpLqxXcdl-0" value="User: &lt;UserInfo&gt;" style="swimlane;fontStyle=0;childLayout=stackLayout;horizontal=1;startSize=26;fillColor=none;horizontalStack=0;resizeParent=1;resizeParentMax=0;resizeLast=0;collapsible=1;marginBottom=0;" parent="sz_QXyadWy3CbSNMM9F9-1" vertex="1">
          <mxGeometry x="120" y="280" width="160" height="156" as="geometry" />
        </mxCell>
        <mxCell id="Xj6VFuCN3mnKpLqxXcdl-1" value="+ connectionid: string" style="text;strokeColor=none;fillColor=none;align=left;verticalAlign=top;spacingLeft=4;spacingRight=4;overflow=hidden;rotatable=0;points=[[0,0.5],[1,0.5]];portConstraint=eastwest;" parent="Xj6VFuCN3mnKpLqxXcdl-0" vertex="1">
          <mxGeometry y="26" width="160" height="26" as="geometry" />
        </mxCell>
        <mxCell id="Xj6VFuCN3mnKpLqxXcdl-2" value="+ location: string" style="text;strokeColor=none;fillColor=none;align=left;verticalAlign=top;spacingLeft=4;spacingRight=4;overflow=hidden;rotatable=0;points=[[0,0.5],[1,0.5]];portConstraint=eastwest;" parent="Xj6VFuCN3mnKpLqxXcdl-0" vertex="1">
          <mxGeometry y="52" width="160" height="26" as="geometry" />
        </mxCell>
        <mxCell id="Xj6VFuCN3mnKpLqxXcdl-3" value="+ nickname: string" style="text;strokeColor=none;fillColor=none;align=left;verticalAlign=top;spacingLeft=4;spacingRight=4;overflow=hidden;rotatable=0;points=[[0,0.5],[1,0.5]];portConstraint=eastwest;" parent="Xj6VFuCN3mnKpLqxXcdl-0" vertex="1">
          <mxGeometry y="78" width="160" height="26" as="geometry" />
        </mxCell>
        <mxCell id="Xj6VFuCN3mnKpLqxXcdl-4" value="+ contactinfo: string" style="text;strokeColor=none;fillColor=none;align=left;verticalAlign=top;spacingLeft=4;spacingRight=4;overflow=hidden;rotatable=0;points=[[0,0.5],[1,0.5]];portConstraint=eastwest;" parent="Xj6VFuCN3mnKpLqxXcdl-0" vertex="1">
          <mxGeometry y="104" width="160" height="26" as="geometry" />
        </mxCell>
        <mxCell id="Xj6VFuCN3mnKpLqxXcdl-10" value="+ items: Array&lt;OfferItem&gt;" style="text;strokeColor=none;fillColor=none;align=left;verticalAlign=top;spacingLeft=4;spacingRight=4;overflow=hidden;rotatable=0;points=[[0,0.5],[1,0.5]];portConstraint=eastwest;" parent="Xj6VFuCN3mnKpLqxXcdl-0" vertex="1">
          <mxGeometry y="130" width="160" height="26" as="geometry" />
        </mxCell>
        <mxCell id="fl0bYv4sVzvXIb9dSJEq-0" style="edgeStyle=orthogonalEdgeStyle;rounded=0;orthogonalLoop=1;jettySize=auto;html=1;" parent="sz_QXyadWy3CbSNMM9F9-1" source="Xj6VFuCN3mnKpLqxXcdl-5" target="Xj6VFuCN3mnKpLqxXcdl-11" edge="1">
          <mxGeometry relative="1" as="geometry">
            <Array as="points">
              <mxPoint x="465" y="390" />
              <mxPoint x="400" y="390" />
            </Array>
          </mxGeometry>
        </mxCell>
        <mxCell id="Xj6VFuCN3mnKpLqxXcdl-5" value="Offers: Array&lt;UserInfo&gt;" style="swimlane;fontStyle=0;childLayout=stackLayout;horizontal=1;startSize=26;fillColor=none;horizontalStack=0;resizeParent=1;resizeParentMax=0;resizeLast=0;collapsible=1;marginBottom=0;" parent="sz_QXyadWy3CbSNMM9F9-1" vertex="1">
          <mxGeometry x="380" y="300" width="170" height="52" as="geometry" />
        </mxCell>
        <mxCell id="Xj6VFuCN3mnKpLqxXcdl-11" value="&lt;OfferItem&gt;" style="swimlane;fontStyle=0;childLayout=stackLayout;horizontal=1;startSize=26;fillColor=none;horizontalStack=0;resizeParent=1;resizeParentMax=0;resizeLast=0;collapsible=1;marginBottom=0;" parent="sz_QXyadWy3CbSNMM9F9-1" vertex="1">
          <mxGeometry x="330" y="455" width="140" height="130" as="geometry" />
        </mxCell>
        <mxCell id="Xj6VFuCN3mnKpLqxXcdl-12" value="+ itemid: string" style="text;strokeColor=none;fillColor=none;align=left;verticalAlign=top;spacingLeft=4;spacingRight=4;overflow=hidden;rotatable=0;points=[[0,0.5],[1,0.5]];portConstraint=eastwest;" parent="Xj6VFuCN3mnKpLqxXcdl-11" vertex="1">
          <mxGeometry y="26" width="140" height="26" as="geometry" />
        </mxCell>
        <mxCell id="Xj6VFuCN3mnKpLqxXcdl-13" value="+ itemname: string" style="text;strokeColor=none;fillColor=none;align=left;verticalAlign=top;spacingLeft=4;spacingRight=4;overflow=hidden;rotatable=0;points=[[0,0.5],[1,0.5]];portConstraint=eastwest;" parent="Xj6VFuCN3mnKpLqxXcdl-11" vertex="1">
          <mxGeometry y="52" width="140" height="26" as="geometry" />
        </mxCell>
        <mxCell id="Xj6VFuCN3mnKpLqxXcdl-14" value="+ demand: number" style="text;strokeColor=none;fillColor=none;align=left;verticalAlign=top;spacingLeft=4;spacingRight=4;overflow=hidden;rotatable=0;points=[[0,0.5],[1,0.5]];portConstraint=eastwest;" parent="Xj6VFuCN3mnKpLqxXcdl-11" vertex="1">
          <mxGeometry y="78" width="140" height="26" as="geometry" />
        </mxCell>
        <mxCell id="Xj6VFuCN3mnKpLqxXcdl-15" value="+ supply: number" style="text;strokeColor=none;fillColor=none;align=left;verticalAlign=top;spacingLeft=4;spacingRight=4;overflow=hidden;rotatable=0;points=[[0,0.5],[1,0.5]];portConstraint=eastwest;" parent="Xj6VFuCN3mnKpLqxXcdl-11" vertex="1">
          <mxGeometry y="104" width="140" height="26" as="geometry" />
        </mxCell>
        <mxCell id="fl0bYv4sVzvXIb9dSJEq-1" style="edgeStyle=orthogonalEdgeStyle;rounded=0;orthogonalLoop=1;jettySize=auto;html=1;" parent="sz_QXyadWy3CbSNMM9F9-1" source="Xj6VFuCN3mnKpLqxXcdl-4" target="Xj6VFuCN3mnKpLqxXcdl-11" edge="1">
          <mxGeometry relative="1" as="geometry">
            <Array as="points">
              <mxPoint x="400" y="390" />
            </Array>
          </mxGeometry>
        </mxCell>
        <mxCell id="fl0bYv4sVzvXIb9dSJEq-2" value="Local storage" style="text;html=1;align=center;verticalAlign=middle;resizable=0;points=[];autosize=1;strokeColor=none;" parent="sz_QXyadWy3CbSNMM9F9-1" vertex="1">
          <mxGeometry x="120" y="260" width="90" height="20" as="geometry" />
        </mxCell>
        <mxCell id="fl0bYv4sVzvXIb9dSJEq-3" value="Local storage" style="text;html=1;align=center;verticalAlign=middle;resizable=0;points=[];autosize=1;strokeColor=none;" parent="sz_QXyadWy3CbSNMM9F9-1" vertex="1">
          <mxGeometry x="380" y="280" width="90" height="20" as="geometry" />
        </mxCell>
      </root>
    </mxGraphModel>
  </diagram>
  <diagram id="4MPC-70Ac1xWpYq3L0gV" name="Comms">
    <mxGraphModel dx="1278" dy="821" grid="1" gridSize="10" guides="1" tooltips="1" connect="1" arrows="1" fold="1" page="1" pageScale="1" pageWidth="827" pageHeight="1169" math="0" shadow="0">
      <root>
        <mxCell id="fXBi3EkeCqByKa08R1XL-0" />
        <mxCell id="fXBi3EkeCqByKa08R1XL-1" parent="fXBi3EkeCqByKa08R1XL-0" />
        <mxCell id="DUZ4BzsDFk3h0vNr3s05-0" value="&lt;h1&gt;Communications model&lt;/h1&gt;&lt;h1&gt;&lt;p style=&quot;font-size: 12px ; font-weight: 400&quot;&gt;There are two options to communicate with other users:&lt;br&gt;1. Offers visible only while offer giver is connected;&lt;br&gt;2. Offers visible no matter if their respectful givers are connected.&amp;nbsp;&lt;/p&gt;&lt;p style=&quot;font-size: 12px ; font-weight: 400&quot;&gt;To implement #1 we need nothing except AWS lambda and it&#39;s connection id and connections collection.&lt;br&gt;To implement #2 we need some user ID to associate connection with and to store data on behalf of. So User ID must be persistent and authenticated to make sure other person not mimics the initial offer giver&lt;/p&gt;&lt;/h1&gt;" style="text;html=1;strokeColor=none;fillColor=none;spacing=5;spacingTop=-20;whiteSpace=wrap;overflow=hidden;rounded=0;" vertex="1" parent="fXBi3EkeCqByKa08R1XL-1">
          <mxGeometry x="30" y="31" width="770" height="159" as="geometry" />
        </mxCell>
        <mxCell id="DUZ4BzsDFk3h0vNr3s05-8" style="edgeStyle=orthogonalEdgeStyle;rounded=0;orthogonalLoop=1;jettySize=auto;html=1;" edge="1" parent="fXBi3EkeCqByKa08R1XL-1" source="DUZ4BzsDFk3h0vNr3s05-1" target="DUZ4BzsDFk3h0vNr3s05-3">
          <mxGeometry relative="1" as="geometry">
            <Array as="points">
              <mxPoint x="160" y="280" />
            </Array>
          </mxGeometry>
        </mxCell>
        <mxCell id="DUZ4BzsDFk3h0vNr3s05-1" value="User Data&lt;br&gt;(trace associated&lt;br&gt;with provided token)" style="rounded=0;whiteSpace=wrap;html=1;" vertex="1" parent="fXBi3EkeCqByKa08R1XL-1">
          <mxGeometry x="100" y="320" width="120" height="60" as="geometry" />
        </mxCell>
        <mxCell id="DUZ4BzsDFk3h0vNr3s05-6" style="edgeStyle=orthogonalEdgeStyle;rounded=0;orthogonalLoop=1;jettySize=auto;html=1;" edge="1" parent="fXBi3EkeCqByKa08R1XL-1" source="DUZ4BzsDFk3h0vNr3s05-2" target="DUZ4BzsDFk3h0vNr3s05-5">
          <mxGeometry relative="1" as="geometry">
            <Array as="points">
              <mxPoint x="560" y="470" />
            </Array>
          </mxGeometry>
        </mxCell>
        <mxCell id="DUZ4BzsDFk3h0vNr3s05-2" value="Connection Data" style="rounded=0;whiteSpace=wrap;html=1;" vertex="1" parent="fXBi3EkeCqByKa08R1XL-1">
          <mxGeometry x="500" y="320" width="120" height="60" as="geometry" />
        </mxCell>
        <mxCell id="DUZ4BzsDFk3h0vNr3s05-4" style="edgeStyle=orthogonalEdgeStyle;rounded=0;orthogonalLoop=1;jettySize=auto;html=1;" edge="1" parent="fXBi3EkeCqByKa08R1XL-1" source="DUZ4BzsDFk3h0vNr3s05-3" target="DUZ4BzsDFk3h0vNr3s05-2">
          <mxGeometry relative="1" as="geometry" />
        </mxCell>
        <mxCell id="DUZ4BzsDFk3h0vNr3s05-10" value="&lt;span style=&quot;font-size: 12px ; background-color: rgb(248 , 249 , 250)&quot;&gt;connectionId&lt;/span&gt;" style="edgeLabel;html=1;align=center;verticalAlign=middle;resizable=0;points=[];" vertex="1" connectable="0" parent="DUZ4BzsDFk3h0vNr3s05-4">
          <mxGeometry x="-0.107" y="1" relative="1" as="geometry">
            <mxPoint as="offset" />
          </mxGeometry>
        </mxCell>
        <mxCell id="DUZ4BzsDFk3h0vNr3s05-7" style="edgeStyle=orthogonalEdgeStyle;rounded=0;orthogonalLoop=1;jettySize=auto;html=1;" edge="1" parent="fXBi3EkeCqByKa08R1XL-1" source="DUZ4BzsDFk3h0vNr3s05-3" target="DUZ4BzsDFk3h0vNr3s05-5">
          <mxGeometry relative="1" as="geometry" />
        </mxCell>
        <mxCell id="DUZ4BzsDFk3h0vNr3s05-29" value="token&lt;br&gt;(old or new)" style="edgeLabel;html=1;align=center;verticalAlign=middle;resizable=0;points=[];" vertex="1" connectable="0" parent="DUZ4BzsDFk3h0vNr3s05-7">
          <mxGeometry x="-0.1231" y="1" relative="1" as="geometry">
            <mxPoint as="offset" />
          </mxGeometry>
        </mxCell>
        <mxCell id="DUZ4BzsDFk3h0vNr3s05-3" value="Actor" style="shape=umlActor;verticalLabelPosition=bottom;verticalAlign=top;html=1;outlineConnect=0;" vertex="1" parent="fXBi3EkeCqByKa08R1XL-1">
          <mxGeometry x="355" y="250" width="30" height="60" as="geometry" />
        </mxCell>
        <mxCell id="DUZ4BzsDFk3h0vNr3s05-9" style="edgeStyle=orthogonalEdgeStyle;rounded=0;orthogonalLoop=1;jettySize=auto;html=1;" edge="1" parent="fXBi3EkeCqByKa08R1XL-1" source="DUZ4BzsDFk3h0vNr3s05-5" target="DUZ4BzsDFk3h0vNr3s05-1">
          <mxGeometry relative="1" as="geometry" />
        </mxCell>
        <mxCell id="DUZ4BzsDFk3h0vNr3s05-5" value="Authentication:&lt;br&gt;match token with existing or create a new trace" style="shape=process;whiteSpace=wrap;html=1;backgroundOutline=1;" vertex="1" parent="fXBi3EkeCqByKa08R1XL-1">
          <mxGeometry x="310" y="440" width="120" height="80" as="geometry" />
        </mxCell>
        <mxCell id="DUZ4BzsDFk3h0vNr3s05-22" style="edgeStyle=orthogonalEdgeStyle;rounded=0;orthogonalLoop=1;jettySize=auto;html=1;" edge="1" parent="fXBi3EkeCqByKa08R1XL-1" source="DUZ4BzsDFk3h0vNr3s05-13" target="DUZ4BzsDFk3h0vNr3s05-21">
          <mxGeometry relative="1" as="geometry">
            <Array as="points">
              <mxPoint x="310" y="860" />
              <mxPoint x="310" y="860" />
            </Array>
          </mxGeometry>
        </mxCell>
        <mxCell id="DUZ4BzsDFk3h0vNr3s05-23" value="OLD or NEW auth token" style="edgeLabel;html=1;align=center;verticalAlign=middle;resizable=0;points=[];" vertex="1" connectable="0" parent="DUZ4BzsDFk3h0vNr3s05-22">
          <mxGeometry x="-0.1653" y="1" relative="1" as="geometry">
            <mxPoint as="offset" />
          </mxGeometry>
        </mxCell>
        <mxCell id="DUZ4BzsDFk3h0vNr3s05-13" value="" style="shape=umlLifeline;participant=umlActor;perimeter=lifelinePerimeter;whiteSpace=wrap;html=1;container=1;collapsible=0;recursiveResize=0;verticalAlign=top;spacingTop=36;outlineConnect=0;" vertex="1" parent="fXBi3EkeCqByKa08R1XL-1">
          <mxGeometry x="90" y="630" width="20" height="490" as="geometry" />
        </mxCell>
        <mxCell id="DUZ4BzsDFk3h0vNr3s05-14" value="API" style="shape=umlLifeline;participant=umlEntity;perimeter=lifelinePerimeter;whiteSpace=wrap;html=1;container=1;collapsible=0;recursiveResize=0;verticalAlign=top;spacingTop=36;outlineConnect=0;" vertex="1" parent="fXBi3EkeCqByKa08R1XL-1">
          <mxGeometry x="370" y="630" width="100" height="490" as="geometry" />
        </mxCell>
        <mxCell id="DUZ4BzsDFk3h0vNr3s05-15" value="generates a token&lt;br&gt;for connection" style="html=1;points=[];perimeter=orthogonalPerimeter;" vertex="1" parent="DUZ4BzsDFk3h0vNr3s05-14">
          <mxGeometry x="-20" y="90" width="120" height="80" as="geometry" />
        </mxCell>
        <mxCell id="DUZ4BzsDFk3h0vNr3s05-21" value="looks for existing&lt;br&gt;traces by provided&lt;br&gt;token" style="html=1;points=[];perimeter=orthogonalPerimeter;" vertex="1" parent="DUZ4BzsDFk3h0vNr3s05-14">
          <mxGeometry x="-20" y="220" width="120" height="210" as="geometry" />
        </mxCell>
        <mxCell id="DUZ4BzsDFk3h0vNr3s05-16" value="connects" style="html=1;verticalAlign=bottom;startArrow=oval;endArrow=block;startSize=8;" edge="1" target="DUZ4BzsDFk3h0vNr3s05-15" parent="fXBi3EkeCqByKa08R1XL-1" source="DUZ4BzsDFk3h0vNr3s05-13">
          <mxGeometry relative="1" as="geometry">
            <mxPoint x="180" y="720" as="sourcePoint" />
            <Array as="points">
              <mxPoint x="200.5" y="720" />
            </Array>
          </mxGeometry>
        </mxCell>
        <mxCell id="DUZ4BzsDFk3h0vNr3s05-17" value="API DB" style="shape=umlLifeline;participant=umlEntity;perimeter=lifelinePerimeter;whiteSpace=wrap;html=1;container=1;collapsible=0;recursiveResize=0;verticalAlign=top;spacingTop=36;outlineConnect=0;" vertex="1" parent="fXBi3EkeCqByKa08R1XL-1">
          <mxGeometry x="670" y="630" width="110" height="490" as="geometry" />
        </mxCell>
        <mxCell id="DUZ4BzsDFk3h0vNr3s05-18" value="stores connection id&lt;br&gt;in separate table,&lt;br&gt;like not authenticated&lt;br&gt;connection" style="html=1;points=[];perimeter=orthogonalPerimeter;" vertex="1" parent="DUZ4BzsDFk3h0vNr3s05-17">
          <mxGeometry x="-15" y="90" width="140" height="130" as="geometry" />
        </mxCell>
        <mxCell id="DUZ4BzsDFk3h0vNr3s05-26" value="updates non-auth&lt;br&gt;table with a privided&lt;br&gt;token" style="html=1;points=[];perimeter=orthogonalPerimeter;" vertex="1" parent="DUZ4BzsDFk3h0vNr3s05-17">
          <mxGeometry x="-10" y="250" width="120" height="70" as="geometry" />
        </mxCell>
        <mxCell id="DUZ4BzsDFk3h0vNr3s05-27" value="creates a new&lt;br&gt;trace if&lt;br&gt;no existing&lt;br&gt;found for provided&lt;br&gt;token" style="html=1;points=[];perimeter=orthogonalPerimeter;" vertex="1" parent="DUZ4BzsDFk3h0vNr3s05-17">
          <mxGeometry y="340" width="100" height="100" as="geometry" />
        </mxCell>
        <mxCell id="DUZ4BzsDFk3h0vNr3s05-28" style="edgeStyle=orthogonalEdgeStyle;rounded=0;orthogonalLoop=1;jettySize=auto;html=1;" edge="1" parent="DUZ4BzsDFk3h0vNr3s05-17" source="DUZ4BzsDFk3h0vNr3s05-26" target="DUZ4BzsDFk3h0vNr3s05-27">
          <mxGeometry relative="1" as="geometry">
            <Array as="points">
              <mxPoint x="120" y="285" />
              <mxPoint x="120" y="350" />
            </Array>
          </mxGeometry>
        </mxCell>
        <mxCell id="DUZ4BzsDFk3h0vNr3s05-19" style="edgeStyle=orthogonalEdgeStyle;rounded=0;orthogonalLoop=1;jettySize=auto;html=1;" edge="1" parent="fXBi3EkeCqByKa08R1XL-1" source="DUZ4BzsDFk3h0vNr3s05-15" target="DUZ4BzsDFk3h0vNr3s05-18">
          <mxGeometry relative="1" as="geometry">
            <Array as="points">
              <mxPoint x="570" y="740" />
              <mxPoint x="570" y="740" />
            </Array>
          </mxGeometry>
        </mxCell>
        <mxCell id="DUZ4BzsDFk3h0vNr3s05-24" value="connectionId" style="edgeLabel;html=1;align=center;verticalAlign=middle;resizable=0;points=[];" vertex="1" connectable="0" parent="DUZ4BzsDFk3h0vNr3s05-19">
          <mxGeometry x="0.1677" y="-1" relative="1" as="geometry">
            <mxPoint as="offset" />
          </mxGeometry>
        </mxCell>
        <mxCell id="DUZ4BzsDFk3h0vNr3s05-20" value="connectionId + NEW auth token" style="edgeStyle=orthogonalEdgeStyle;rounded=0;orthogonalLoop=1;jettySize=auto;html=1;" edge="1" parent="fXBi3EkeCqByKa08R1XL-1" source="DUZ4BzsDFk3h0vNr3s05-15" target="DUZ4BzsDFk3h0vNr3s05-13">
          <mxGeometry relative="1" as="geometry">
            <mxPoint x="150" y="760" as="targetPoint" />
            <Array as="points">
              <mxPoint x="350" y="790" />
              <mxPoint x="350" y="790" />
            </Array>
          </mxGeometry>
        </mxCell>
        <mxCell id="DUZ4BzsDFk3h0vNr3s05-25" style="edgeStyle=orthogonalEdgeStyle;rounded=0;orthogonalLoop=1;jettySize=auto;html=1;" edge="1" parent="fXBi3EkeCqByKa08R1XL-1" source="DUZ4BzsDFk3h0vNr3s05-21" target="DUZ4BzsDFk3h0vNr3s05-26">
          <mxGeometry relative="1" as="geometry">
            <mxPoint x="630" y="960" as="targetPoint" />
            <Array as="points">
              <mxPoint x="650" y="890" />
              <mxPoint x="650" y="890" />
            </Array>
          </mxGeometry>
        </mxCell>
        <mxCell id="DUZ4BzsDFk3h0vNr3s05-30" style="edgeStyle=orthogonalEdgeStyle;rounded=0;orthogonalLoop=1;jettySize=auto;html=1;" edge="1" parent="fXBi3EkeCqByKa08R1XL-1" source="DUZ4BzsDFk3h0vNr3s05-27" target="DUZ4BzsDFk3h0vNr3s05-21">
          <mxGeometry relative="1" as="geometry">
            <Array as="points">
              <mxPoint x="530" y="1020" />
              <mxPoint x="530" y="1020" />
            </Array>
          </mxGeometry>
        </mxCell>
        <mxCell id="DUZ4BzsDFk3h0vNr3s05-31" value="user&#39;s trace (some data)" style="edgeStyle=orthogonalEdgeStyle;rounded=0;orthogonalLoop=1;jettySize=auto;html=1;" edge="1" parent="fXBi3EkeCqByKa08R1XL-1" source="DUZ4BzsDFk3h0vNr3s05-21" target="DUZ4BzsDFk3h0vNr3s05-13">
          <mxGeometry relative="1" as="geometry">
            <Array as="points">
              <mxPoint x="170" y="955" />
              <mxPoint x="170" y="955" />
            </Array>
          </mxGeometry>
        </mxCell>
      </root>
    </mxGraphModel>
  </diagram>
  <diagram name="Client side matching" id="X-xBrwqctOmr30aznXiq">
    <mxGraphModel dx="1278" dy="821" grid="1" gridSize="10" guides="1" tooltips="1" connect="1" arrows="1" fold="1" page="1" pageScale="1" pageWidth="827" pageHeight="1169" math="0" shadow="0">
      <root>
        <mxCell id="uhBXF1kkd54GLE72urZv-0" />
        <mxCell id="uhBXF1kkd54GLE72urZv-1" parent="uhBXF1kkd54GLE72urZv-0" />
        <mxCell id="uhBXF1kkd54GLE72urZv-2" value="Offer UI" style="shape=umlLifeline;participant=umlControl;perimeter=lifelinePerimeter;whiteSpace=wrap;html=1;container=1;collapsible=0;recursiveResize=0;verticalAlign=top;spacingTop=36;outlineConnect=0;" parent="uhBXF1kkd54GLE72urZv-1" vertex="1">
          <mxGeometry x="204" y="390" width="40" height="740" as="geometry" />
        </mxCell>
        <mxCell id="uhBXF1kkd54GLE72urZv-3" value="" style="edgeStyle=orthogonalEdgeStyle;rounded=0;orthogonalLoop=1;jettySize=auto;html=1;" parent="uhBXF1kkd54GLE72urZv-1" source="uhBXF1kkd54GLE72urZv-4" target="uhBXF1kkd54GLE72urZv-5" edge="1">
          <mxGeometry relative="1" as="geometry" />
        </mxCell>
        <mxCell id="uhBXF1kkd54GLE72urZv-4" value="&lt;div style=&quot;box-sizing: border-box ; width: 100% ; background: #e4e4e4 ; padding: 2px&quot;&gt;Offers&lt;/div&gt;&lt;table style=&quot;width: 100% ; font-size: 1em&quot; cellpadding=&quot;2&quot; cellspacing=&quot;0&quot;&gt;&lt;tbody&gt;&lt;tr&gt;&lt;td&gt;PK&lt;/td&gt;&lt;td&gt;connectionId&lt;/td&gt;&lt;/tr&gt;&lt;tr&gt;&lt;td&gt;FK&lt;/td&gt;&lt;td&gt;offerId&lt;/td&gt;&lt;/tr&gt;&lt;tr&gt;&lt;td&gt;&lt;/td&gt;&lt;td&gt;commander&lt;br&gt;location&lt;br&gt;info&lt;/td&gt;&lt;/tr&gt;&lt;/tbody&gt;&lt;/table&gt;" style="verticalAlign=top;align=left;overflow=fill;html=1;" parent="uhBXF1kkd54GLE72urZv-1" vertex="1">
          <mxGeometry x="190" y="200" width="180" height="110" as="geometry" />
        </mxCell>
        <mxCell id="uhBXF1kkd54GLE72urZv-5" value="&lt;div style=&quot;box-sizing: border-box ; width: 100% ; background: #e4e4e4 ; padding: 2px&quot;&gt;OfferItems&lt;/div&gt;&lt;table style=&quot;width: 100% ; font-size: 1em&quot; cellpadding=&quot;2&quot; cellspacing=&quot;0&quot;&gt;&lt;tbody&gt;&lt;tr&gt;&lt;td&gt;PK&lt;/td&gt;&lt;td&gt;offerId&lt;/td&gt;&lt;/tr&gt;&lt;tr&gt;&lt;td&gt;PK&lt;/td&gt;&lt;td&gt;itemId&lt;/td&gt;&lt;/tr&gt;&lt;tr&gt;&lt;td&gt;&lt;/td&gt;&lt;td&gt;outbound&lt;br&gt;inbound&lt;/td&gt;&lt;/tr&gt;&lt;/tbody&gt;&lt;/table&gt;" style="verticalAlign=top;align=left;overflow=fill;html=1;" parent="uhBXF1kkd54GLE72urZv-1" vertex="1">
          <mxGeometry x="454" y="210" width="180" height="90" as="geometry" />
        </mxCell>
        <mxCell id="uhBXF1kkd54GLE72urZv-6" value="User" style="shape=umlLifeline;participant=umlActor;perimeter=lifelinePerimeter;whiteSpace=wrap;html=1;container=1;collapsible=0;recursiveResize=0;verticalAlign=top;spacingTop=36;outlineConnect=0;" parent="uhBXF1kkd54GLE72urZv-1" vertex="1">
          <mxGeometry x="74" y="390" width="20" height="740" as="geometry" />
        </mxCell>
        <mxCell id="uhBXF1kkd54GLE72urZv-7" value="Pick Items and &lt;br&gt;specify&lt;br&gt;Inbound&lt;br&gt;and Outbound&lt;br&gt;numbers" style="html=1;points=[];perimeter=orthogonalPerimeter;" parent="uhBXF1kkd54GLE72urZv-1" vertex="1">
          <mxGeometry x="177" y="470" width="94" height="80" as="geometry" />
        </mxCell>
        <mxCell id="uhBXF1kkd54GLE72urZv-8" value="input" style="html=1;verticalAlign=bottom;startArrow=oval;endArrow=block;startSize=8;" parent="uhBXF1kkd54GLE72urZv-1" source="uhBXF1kkd54GLE72urZv-6" target="uhBXF1kkd54GLE72urZv-7" edge="1">
          <mxGeometry relative="1" as="geometry">
            <mxPoint x="84" y="480" as="sourcePoint" />
            <Array as="points">
              <mxPoint x="114" y="470" />
            </Array>
          </mxGeometry>
        </mxCell>
        <mxCell id="uhBXF1kkd54GLE72urZv-9" value="EDMP&lt;br&gt;backend" style="shape=umlLifeline;participant=umlEntity;perimeter=lifelinePerimeter;whiteSpace=wrap;html=1;container=1;collapsible=0;recursiveResize=0;verticalAlign=top;spacingTop=36;outlineConnect=0;" parent="uhBXF1kkd54GLE72urZv-1" vertex="1">
          <mxGeometry x="404" y="390" width="40" height="740" as="geometry" />
        </mxCell>
        <mxCell id="uhBXF1kkd54GLE72urZv-10" value="Broadcast a&lt;br&gt;Data was Changed&lt;br&gt;Notification" style="html=1;points=[];perimeter=orthogonalPerimeter;" parent="uhBXF1kkd54GLE72urZv-9" vertex="1">
          <mxGeometry x="-40" y="289.5" width="120" height="80" as="geometry" />
        </mxCell>
        <mxCell id="uhBXF1kkd54GLE72urZv-11" value="User" style="shape=umlLifeline;participant=umlActor;perimeter=lifelinePerimeter;whiteSpace=wrap;html=1;container=1;collapsible=0;recursiveResize=0;verticalAlign=top;spacingTop=36;outlineConnect=0;" parent="uhBXF1kkd54GLE72urZv-1" vertex="1">
          <mxGeometry x="734" y="390" width="20" height="730" as="geometry" />
        </mxCell>
        <mxCell id="uhBXF1kkd54GLE72urZv-12" value="Create/Update/Delete&lt;br&gt;Offer and&lt;br&gt;Items" style="html=1;points=[];perimeter=orthogonalPerimeter;" parent="uhBXF1kkd54GLE72urZv-1" vertex="1">
          <mxGeometry x="350" y="550" width="136" height="80" as="geometry" />
        </mxCell>
        <mxCell id="uhBXF1kkd54GLE72urZv-13" value="ws" style="html=1;verticalAlign=bottom;startArrow=none;endArrow=block;startSize=8;startFill=0;" parent="uhBXF1kkd54GLE72urZv-1" source="uhBXF1kkd54GLE72urZv-7" target="uhBXF1kkd54GLE72urZv-12" edge="1">
          <mxGeometry relative="1" as="geometry">
            <mxPoint x="334" y="560" as="sourcePoint" />
            <Array as="points">
              <mxPoint x="304" y="550" />
              <mxPoint x="344" y="550" />
            </Array>
          </mxGeometry>
        </mxCell>
        <mxCell id="uhBXF1kkd54GLE72urZv-14" value="self call" style="edgeStyle=orthogonalEdgeStyle;html=1;align=left;spacingLeft=2;endArrow=block;rounded=0;" parent="uhBXF1kkd54GLE72urZv-1" source="uhBXF1kkd54GLE72urZv-12" target="uhBXF1kkd54GLE72urZv-10" edge="1">
          <mxGeometry relative="1" as="geometry">
            <mxPoint x="399" y="680" as="sourcePoint" />
            <Array as="points">
              <mxPoint x="504" y="630" />
              <mxPoint x="504" y="680" />
            </Array>
            <mxPoint x="474" y="680" as="targetPoint" />
          </mxGeometry>
        </mxCell>
        <mxCell id="uhBXF1kkd54GLE72urZv-15" style="edgeStyle=orthogonalEdgeStyle;rounded=0;orthogonalLoop=1;jettySize=auto;html=1;startArrow=none;startFill=0;" parent="uhBXF1kkd54GLE72urZv-1" source="uhBXF1kkd54GLE72urZv-10" target="uhBXF1kkd54GLE72urZv-21" edge="1">
          <mxGeometry relative="1" as="geometry">
            <Array as="points">
              <mxPoint x="550" y="759.5" />
              <mxPoint x="550" y="759.5" />
            </Array>
          </mxGeometry>
        </mxCell>
        <mxCell id="uhBXF1kkd54GLE72urZv-16" value="ws" style="edgeLabel;html=1;align=center;verticalAlign=bottom;resizable=0;points=[];" parent="uhBXF1kkd54GLE72urZv-15" vertex="1" connectable="0">
          <mxGeometry x="-0.0239" y="1" relative="1" as="geometry">
            <mxPoint as="offset" />
          </mxGeometry>
        </mxCell>
        <mxCell id="uhBXF1kkd54GLE72urZv-19" value="Offer UI" style="shape=umlLifeline;participant=umlControl;perimeter=lifelinePerimeter;whiteSpace=wrap;html=1;container=1;collapsible=0;recursiveResize=0;verticalAlign=top;spacingTop=36;outlineConnect=0;" parent="uhBXF1kkd54GLE72urZv-1" vertex="1">
          <mxGeometry x="594" y="390" width="40" height="740" as="geometry" />
        </mxCell>
        <mxCell id="uhBXF1kkd54GLE72urZv-20" value="notification" style="edgeStyle=orthogonalEdgeStyle;rounded=0;orthogonalLoop=1;jettySize=auto;html=1;startArrow=none;startFill=0;verticalAlign=bottom;" parent="uhBXF1kkd54GLE72urZv-1" source="uhBXF1kkd54GLE72urZv-21" edge="1">
          <mxGeometry relative="1" as="geometry">
            <Array as="points">
              <mxPoint x="680" y="839.5" />
              <mxPoint x="680" y="839.5" />
            </Array>
            <mxPoint x="743.5" y="839.5" as="targetPoint" />
          </mxGeometry>
        </mxCell>
        <mxCell id="uhBXF1kkd54GLE72urZv-21" value="Update&lt;br&gt;Matched&lt;br&gt;Offer" style="html=1;points=[];perimeter=orthogonalPerimeter;" parent="uhBXF1kkd54GLE72urZv-1" vertex="1">
          <mxGeometry x="567" y="759.5" width="94" height="80" as="geometry" />
        </mxCell>
        <mxCell id="uhBXF1kkd54GLE72urZv-22" value="connect" style="html=1;verticalAlign=bottom;startArrow=oval;endArrow=block;startSize=8;entryX=-0.015;entryY=0.375;entryDx=0;entryDy=0;entryPerimeter=0;" parent="uhBXF1kkd54GLE72urZv-1" source="uhBXF1kkd54GLE72urZv-2" target="uhBXF1kkd54GLE72urZv-12" edge="1">
          <mxGeometry relative="1" as="geometry">
            <mxPoint x="233.25" y="580" as="sourcePoint" />
            <mxPoint x="326.75" y="580" as="targetPoint" />
            <Array as="points">
              <mxPoint x="263.75" y="580" />
            </Array>
          </mxGeometry>
        </mxCell>
        <mxCell id="uhBXF1kkd54GLE72urZv-23" value="disconnect" style="html=1;verticalAlign=bottom;startArrow=oval;endArrow=block;startSize=8;" parent="uhBXF1kkd54GLE72urZv-1" source="uhBXF1kkd54GLE72urZv-2" target="uhBXF1kkd54GLE72urZv-12" edge="1">
          <mxGeometry relative="1" as="geometry">
            <mxPoint x="233.25" y="610" as="sourcePoint" />
            <mxPoint x="326.75" y="610" as="targetPoint" />
            <Array as="points">
              <mxPoint x="263.75" y="610" />
            </Array>
          </mxGeometry>
        </mxCell>
        <mxCell id="uhBXF1kkd54GLE72urZv-24" value="&lt;h1&gt;Client side matching&lt;/h1&gt;&lt;p&gt;A user could pick some items in full list of items to be offered to other users in return to some other items picked as requested ones.&lt;br&gt;So each item in full items list can have a number and a &quot;sign&quot; - outbound or inbound.&lt;br&gt;These numbers could then be shared across other users without any intermediate filtering or matching, so client&#39;s UI should somehow indicate items available for trade.&lt;br&gt;There is only one trading offer possible per running (connected) instance of the application.&lt;/p&gt;" style="text;html=1;strokeColor=none;fillColor=none;spacing=5;spacingTop=-20;whiteSpace=wrap;overflow=hidden;rounded=0;" parent="uhBXF1kkd54GLE72urZv-1" vertex="1">
          <mxGeometry x="30" y="31" width="770" height="139" as="geometry" />
        </mxCell>
        <mxCell id="jfFKCoNog97JWCXRgODa-0" value="Offer id" style="html=1;verticalAlign=bottom;startArrow=oval;endArrow=block;startSize=8;" parent="uhBXF1kkd54GLE72urZv-1" target="jfFKCoNog97JWCXRgODa-1" edge="1">
          <mxGeometry relative="1" as="geometry">
            <mxPoint x="83.5" y="870" as="sourcePoint" />
            <Array as="points">
              <mxPoint x="114" y="870" />
            </Array>
            <mxPoint x="177" y="870" as="targetPoint" />
          </mxGeometry>
        </mxCell>
        <mxCell id="jfFKCoNog97JWCXRgODa-2" style="edgeStyle=orthogonalEdgeStyle;rounded=0;orthogonalLoop=1;jettySize=auto;html=1;dashed=1;dashPattern=1 2;startArrow=none;startFill=0;" parent="uhBXF1kkd54GLE72urZv-1" source="jfFKCoNog97JWCXRgODa-1" target="jfFKCoNog97JWCXRgODa-3" edge="1">
          <mxGeometry relative="1" as="geometry">
            <Array as="points" />
          </mxGeometry>
        </mxCell>
        <mxCell id="jfFKCoNog97JWCXRgODa-1" value="Request&lt;br&gt;Contact" style="html=1;points=[];perimeter=orthogonalPerimeter;" parent="uhBXF1kkd54GLE72urZv-1" vertex="1">
          <mxGeometry x="180" y="870" width="94" height="80" as="geometry" />
        </mxCell>
        <mxCell id="jfFKCoNog97JWCXRgODa-5" style="edgeStyle=orthogonalEdgeStyle;rounded=0;orthogonalLoop=1;jettySize=auto;html=1;dashed=1;dashPattern=1 2;startArrow=none;startFill=0;" parent="uhBXF1kkd54GLE72urZv-1" source="jfFKCoNog97JWCXRgODa-3" target="jfFKCoNog97JWCXRgODa-4" edge="1">
          <mxGeometry relative="1" as="geometry" />
        </mxCell>
        <mxCell id="jfFKCoNog97JWCXRgODa-3" value="Push request&lt;br&gt;to offer party" style="html=1;points=[];perimeter=orthogonalPerimeter;" parent="uhBXF1kkd54GLE72urZv-1" vertex="1">
          <mxGeometry x="364" y="890" width="120" height="80" as="geometry" />
        </mxCell>
        <mxCell id="jfFKCoNog97JWCXRgODa-6" value="notification" style="edgeStyle=orthogonalEdgeStyle;rounded=0;orthogonalLoop=1;jettySize=auto;html=1;dashed=1;dashPattern=1 2;startArrow=none;startFill=0;verticalAlign=bottom;" parent="uhBXF1kkd54GLE72urZv-1" source="jfFKCoNog97JWCXRgODa-4" target="uhBXF1kkd54GLE72urZv-11" edge="1">
          <mxGeometry relative="1" as="geometry">
            <Array as="points">
              <mxPoint x="680" y="1000" />
              <mxPoint x="680" y="1000" />
            </Array>
          </mxGeometry>
        </mxCell>
        <mxCell id="jfFKCoNog97JWCXRgODa-4" value="Update&lt;br&gt;Matched&lt;br&gt;Offer" style="html=1;points=[];perimeter=orthogonalPerimeter;" parent="uhBXF1kkd54GLE72urZv-1" vertex="1">
          <mxGeometry x="567" y="920" width="94" height="80" as="geometry" />
        </mxCell>
        <mxCell id="jfFKCoNog97JWCXRgODa-7" value="Offer id" style="html=1;verticalAlign=bottom;startArrow=oval;endArrow=block;startSize=8;" parent="uhBXF1kkd54GLE72urZv-1" target="jfFKCoNog97JWCXRgODa-9" edge="1">
          <mxGeometry relative="1" as="geometry">
            <mxPoint x="85" y="980" as="sourcePoint" />
            <Array as="points">
              <mxPoint x="115.5" y="980" />
            </Array>
            <mxPoint x="178.5" y="980" as="targetPoint" />
          </mxGeometry>
        </mxCell>
        <mxCell id="jfFKCoNog97JWCXRgODa-8" style="edgeStyle=orthogonalEdgeStyle;rounded=0;orthogonalLoop=1;jettySize=auto;html=1;dashed=1;dashPattern=1 2;startArrow=none;startFill=0;" parent="uhBXF1kkd54GLE72urZv-1" source="jfFKCoNog97JWCXRgODa-9" target="jfFKCoNog97JWCXRgODa-11" edge="1">
          <mxGeometry relative="1" as="geometry">
            <Array as="points" />
          </mxGeometry>
        </mxCell>
        <mxCell id="jfFKCoNog97JWCXRgODa-9" value="Share&lt;br&gt;Contact" style="html=1;points=[];perimeter=orthogonalPerimeter;" parent="uhBXF1kkd54GLE72urZv-1" vertex="1">
          <mxGeometry x="181.5" y="980" width="94" height="80" as="geometry" />
        </mxCell>
        <mxCell id="jfFKCoNog97JWCXRgODa-10" style="edgeStyle=orthogonalEdgeStyle;rounded=0;orthogonalLoop=1;jettySize=auto;html=1;dashed=1;dashPattern=1 2;startArrow=none;startFill=0;" parent="uhBXF1kkd54GLE72urZv-1" source="jfFKCoNog97JWCXRgODa-11" target="jfFKCoNog97JWCXRgODa-13" edge="1">
          <mxGeometry relative="1" as="geometry" />
        </mxCell>
        <mxCell id="jfFKCoNog97JWCXRgODa-11" value="Push request&lt;br&gt;to offer party" style="html=1;points=[];perimeter=orthogonalPerimeter;" parent="uhBXF1kkd54GLE72urZv-1" vertex="1">
          <mxGeometry x="365.5" y="1000" width="120" height="80" as="geometry" />
        </mxCell>
        <mxCell id="jfFKCoNog97JWCXRgODa-12" value="notification" style="edgeStyle=orthogonalEdgeStyle;rounded=0;orthogonalLoop=1;jettySize=auto;html=1;dashed=1;dashPattern=1 2;startArrow=none;startFill=0;verticalAlign=bottom;" parent="uhBXF1kkd54GLE72urZv-1" source="jfFKCoNog97JWCXRgODa-13" edge="1">
          <mxGeometry relative="1" as="geometry">
            <mxPoint x="745" y="1110" as="targetPoint" />
            <Array as="points">
              <mxPoint x="681.5" y="1110" />
              <mxPoint x="681.5" y="1110" />
            </Array>
          </mxGeometry>
        </mxCell>
        <mxCell id="jfFKCoNog97JWCXRgODa-13" value="Update&lt;br&gt;Matched&lt;br&gt;Offer" style="html=1;points=[];perimeter=orthogonalPerimeter;" parent="uhBXF1kkd54GLE72urZv-1" vertex="1">
          <mxGeometry x="568.5" y="1030" width="94" height="80" as="geometry" />
        </mxCell>
      </root>
    </mxGraphModel>
  </diagram>
  <diagram id="Q_OV7Is4s_XNs67LhUQ9" name="Server side matching">
    <mxGraphModel dx="1298" dy="841" grid="1" gridSize="10" guides="1" tooltips="1" connect="1" arrows="1" fold="1" page="1" pageScale="1" pageWidth="827" pageHeight="1169" math="0" shadow="0">
      <root>
        <mxCell id="b_XZTSJZ4UOfbabVOEi3-0" />
        <mxCell id="b_XZTSJZ4UOfbabVOEi3-1" parent="b_XZTSJZ4UOfbabVOEi3-0" />
        <mxCell id="b_XZTSJZ4UOfbabVOEi3-22" value="Offer UI" style="shape=umlLifeline;participant=umlControl;perimeter=lifelinePerimeter;whiteSpace=wrap;html=1;container=1;collapsible=0;recursiveResize=0;verticalAlign=top;spacingTop=36;outlineConnect=0;" parent="b_XZTSJZ4UOfbabVOEi3-1" vertex="1">
          <mxGeometry x="204" y="390" width="40" height="1190" as="geometry" />
        </mxCell>
        <mxCell id="b_XZTSJZ4UOfbabVOEi3-12" value="" style="edgeStyle=orthogonalEdgeStyle;rounded=0;orthogonalLoop=1;jettySize=auto;html=1;" parent="b_XZTSJZ4UOfbabVOEi3-1" source="b_XZTSJZ4UOfbabVOEi3-10" target="b_XZTSJZ4UOfbabVOEi3-11" edge="1">
          <mxGeometry relative="1" as="geometry" />
        </mxCell>
        <mxCell id="b_XZTSJZ4UOfbabVOEi3-10" value="&lt;div style=&quot;box-sizing: border-box ; width: 100% ; background: #e4e4e4 ; padding: 2px&quot;&gt;Offers&lt;/div&gt;&lt;table style=&quot;width: 100% ; font-size: 1em&quot; cellpadding=&quot;2&quot; cellspacing=&quot;0&quot;&gt;&lt;tbody&gt;&lt;tr&gt;&lt;td&gt;PK&lt;/td&gt;&lt;td&gt;connectionId&lt;/td&gt;&lt;/tr&gt;&lt;tr&gt;&lt;td&gt;FK&lt;/td&gt;&lt;td&gt;offerId&lt;/td&gt;&lt;/tr&gt;&lt;tr&gt;&lt;td&gt;&lt;/td&gt;&lt;td&gt;commander&lt;br&gt;location&lt;br&gt;info&lt;/td&gt;&lt;/tr&gt;&lt;/tbody&gt;&lt;/table&gt;" style="verticalAlign=top;align=left;overflow=fill;html=1;" parent="b_XZTSJZ4UOfbabVOEi3-1" vertex="1">
          <mxGeometry x="190" y="200" width="180" height="110" as="geometry" />
        </mxCell>
        <mxCell id="b_XZTSJZ4UOfbabVOEi3-11" value="&lt;div style=&quot;box-sizing: border-box ; width: 100% ; background: #e4e4e4 ; padding: 2px&quot;&gt;OfferItems&lt;/div&gt;&lt;table style=&quot;width: 100% ; font-size: 1em&quot; cellpadding=&quot;2&quot; cellspacing=&quot;0&quot;&gt;&lt;tbody&gt;&lt;tr&gt;&lt;td&gt;PK&lt;/td&gt;&lt;td&gt;offerId&lt;/td&gt;&lt;/tr&gt;&lt;tr&gt;&lt;td&gt;PK&lt;/td&gt;&lt;td&gt;itemId&lt;/td&gt;&lt;/tr&gt;&lt;tr&gt;&lt;td&gt;&lt;/td&gt;&lt;td&gt;outbound&lt;br&gt;inbound&lt;/td&gt;&lt;/tr&gt;&lt;/tbody&gt;&lt;/table&gt;" style="verticalAlign=top;align=left;overflow=fill;html=1;" parent="b_XZTSJZ4UOfbabVOEi3-1" vertex="1">
          <mxGeometry x="454" y="210" width="180" height="90" as="geometry" />
        </mxCell>
        <mxCell id="b_XZTSJZ4UOfbabVOEi3-19" value="User" style="shape=umlLifeline;participant=umlActor;perimeter=lifelinePerimeter;whiteSpace=wrap;html=1;container=1;collapsible=0;recursiveResize=0;verticalAlign=top;spacingTop=36;outlineConnect=0;" parent="b_XZTSJZ4UOfbabVOEi3-1" vertex="1">
          <mxGeometry x="74" y="390" width="20" height="1190" as="geometry" />
        </mxCell>
        <mxCell id="b_XZTSJZ4UOfbabVOEi3-20" value="Pick Items and &lt;br&gt;specify&lt;br&gt;Inbound&lt;br&gt;and Outbound&lt;br&gt;numbers" style="html=1;points=[];perimeter=orthogonalPerimeter;" parent="b_XZTSJZ4UOfbabVOEi3-1" vertex="1">
          <mxGeometry x="177" y="470" width="94" height="80" as="geometry" />
        </mxCell>
        <mxCell id="b_XZTSJZ4UOfbabVOEi3-21" value="input" style="html=1;verticalAlign=bottom;startArrow=oval;endArrow=block;startSize=8;" parent="b_XZTSJZ4UOfbabVOEi3-1" source="b_XZTSJZ4UOfbabVOEi3-19" target="b_XZTSJZ4UOfbabVOEi3-20" edge="1">
          <mxGeometry relative="1" as="geometry">
            <mxPoint x="84" y="480" as="sourcePoint" />
            <Array as="points">
              <mxPoint x="114" y="470" />
            </Array>
          </mxGeometry>
        </mxCell>
        <mxCell id="b_XZTSJZ4UOfbabVOEi3-23" value="EDMP&lt;br&gt;backend" style="shape=umlLifeline;participant=umlEntity;perimeter=lifelinePerimeter;whiteSpace=wrap;html=1;container=1;collapsible=0;recursiveResize=0;verticalAlign=top;spacingTop=36;outlineConnect=0;" parent="b_XZTSJZ4UOfbabVOEi3-1" vertex="1">
          <mxGeometry x="404" y="390" width="40" height="1190" as="geometry" />
        </mxCell>
        <mxCell id="b_XZTSJZ4UOfbabVOEi3-32" value="Broadcast&lt;br&gt;Matched&lt;br&gt;Notification" style="html=1;points=[];perimeter=orthogonalPerimeter;" parent="b_XZTSJZ4UOfbabVOEi3-23" vertex="1">
          <mxGeometry x="-40" y="430" width="120" height="80" as="geometry" />
        </mxCell>
        <mxCell id="b_XZTSJZ4UOfbabVOEi3-24" value="User" style="shape=umlLifeline;participant=umlActor;perimeter=lifelinePerimeter;whiteSpace=wrap;html=1;container=1;collapsible=0;recursiveResize=0;verticalAlign=top;spacingTop=36;outlineConnect=0;" parent="b_XZTSJZ4UOfbabVOEi3-1" vertex="1">
          <mxGeometry x="734" y="390" width="20" height="1180" as="geometry" />
        </mxCell>
        <mxCell id="b_XZTSJZ4UOfbabVOEi3-26" value="Create/Update/Delete&lt;br&gt;Offer and&lt;br&gt;Items" style="html=1;points=[];perimeter=orthogonalPerimeter;" parent="b_XZTSJZ4UOfbabVOEi3-1" vertex="1">
          <mxGeometry x="350" y="550" width="136" height="80" as="geometry" />
        </mxCell>
        <mxCell id="b_XZTSJZ4UOfbabVOEi3-27" value="ws" style="html=1;verticalAlign=bottom;startArrow=none;endArrow=block;startSize=8;startFill=0;" parent="b_XZTSJZ4UOfbabVOEi3-1" source="b_XZTSJZ4UOfbabVOEi3-20" target="b_XZTSJZ4UOfbabVOEi3-26" edge="1">
          <mxGeometry relative="1" as="geometry">
            <mxPoint x="334" y="560" as="sourcePoint" />
            <Array as="points">
              <mxPoint x="304" y="550" />
              <mxPoint x="344" y="550" />
            </Array>
          </mxGeometry>
        </mxCell>
        <mxCell id="b_XZTSJZ4UOfbabVOEi3-29" value="self call" style="edgeStyle=orthogonalEdgeStyle;html=1;align=left;spacingLeft=2;endArrow=block;rounded=0;entryX=1;entryY=0;" parent="b_XZTSJZ4UOfbabVOEi3-1" source="b_XZTSJZ4UOfbabVOEi3-26" target="b_XZTSJZ4UOfbabVOEi3-28" edge="1">
          <mxGeometry relative="1" as="geometry">
            <mxPoint x="399" y="680" as="sourcePoint" />
            <Array as="points">
              <mxPoint x="504" y="630" />
              <mxPoint x="504" y="680" />
            </Array>
          </mxGeometry>
        </mxCell>
        <mxCell id="b_XZTSJZ4UOfbabVOEi3-34" style="edgeStyle=orthogonalEdgeStyle;rounded=0;orthogonalLoop=1;jettySize=auto;html=1;startArrow=none;startFill=0;" parent="b_XZTSJZ4UOfbabVOEi3-1" source="b_XZTSJZ4UOfbabVOEi3-32" target="b_XZTSJZ4UOfbabVOEi3-37" edge="1">
          <mxGeometry relative="1" as="geometry">
            <Array as="points">
              <mxPoint x="550" y="900" />
              <mxPoint x="550" y="900" />
            </Array>
          </mxGeometry>
        </mxCell>
        <mxCell id="b_XZTSJZ4UOfbabVOEi3-35" value="ws" style="edgeLabel;html=1;align=center;verticalAlign=bottom;resizable=0;points=[];" parent="b_XZTSJZ4UOfbabVOEi3-34" vertex="1" connectable="0">
          <mxGeometry x="-0.0239" y="1" relative="1" as="geometry">
            <mxPoint as="offset" />
          </mxGeometry>
        </mxCell>
        <mxCell id="b_XZTSJZ4UOfbabVOEi3-28" value="Select&lt;br&gt;Matching&lt;br&gt;Offers" style="html=1;points=[];perimeter=orthogonalPerimeter;" parent="b_XZTSJZ4UOfbabVOEi3-1" vertex="1">
          <mxGeometry x="374" y="680" width="100" height="90" as="geometry" />
        </mxCell>
        <mxCell id="b_XZTSJZ4UOfbabVOEi3-33" value="self call" style="edgeStyle=orthogonalEdgeStyle;html=1;align=left;spacingLeft=2;endArrow=block;rounded=0;entryX=1;entryY=0;" parent="b_XZTSJZ4UOfbabVOEi3-1" source="b_XZTSJZ4UOfbabVOEi3-28" target="b_XZTSJZ4UOfbabVOEi3-32" edge="1">
          <mxGeometry relative="1" as="geometry">
            <mxPoint x="424" y="800" as="sourcePoint" />
            <Array as="points">
              <mxPoint x="504" y="770" />
              <mxPoint x="504" y="820" />
            </Array>
          </mxGeometry>
        </mxCell>
        <mxCell id="b_XZTSJZ4UOfbabVOEi3-36" value="Offer UI" style="shape=umlLifeline;participant=umlControl;perimeter=lifelinePerimeter;whiteSpace=wrap;html=1;container=1;collapsible=0;recursiveResize=0;verticalAlign=top;spacingTop=36;outlineConnect=0;" parent="b_XZTSJZ4UOfbabVOEi3-1" vertex="1">
          <mxGeometry x="594" y="390" width="40" height="1190" as="geometry" />
        </mxCell>
        <mxCell id="b_XZTSJZ4UOfbabVOEi3-38" value="notification" style="edgeStyle=orthogonalEdgeStyle;rounded=0;orthogonalLoop=1;jettySize=auto;html=1;startArrow=none;startFill=0;verticalAlign=bottom;" parent="b_XZTSJZ4UOfbabVOEi3-1" source="b_XZTSJZ4UOfbabVOEi3-37" target="b_XZTSJZ4UOfbabVOEi3-24" edge="1">
          <mxGeometry relative="1" as="geometry">
            <Array as="points">
              <mxPoint x="680" y="980" />
              <mxPoint x="680" y="980" />
            </Array>
          </mxGeometry>
        </mxCell>
        <mxCell id="b_XZTSJZ4UOfbabVOEi3-37" value="Update&lt;br&gt;Matched&lt;br&gt;Offer" style="html=1;points=[];perimeter=orthogonalPerimeter;" parent="b_XZTSJZ4UOfbabVOEi3-1" vertex="1">
          <mxGeometry x="567" y="900" width="94" height="80" as="geometry" />
        </mxCell>
        <mxCell id="b_XZTSJZ4UOfbabVOEi3-39" value="connect" style="html=1;verticalAlign=bottom;startArrow=oval;endArrow=block;startSize=8;entryX=-0.015;entryY=0.375;entryDx=0;entryDy=0;entryPerimeter=0;" parent="b_XZTSJZ4UOfbabVOEi3-1" source="b_XZTSJZ4UOfbabVOEi3-22" target="b_XZTSJZ4UOfbabVOEi3-26" edge="1">
          <mxGeometry relative="1" as="geometry">
            <mxPoint x="233.25" y="580" as="sourcePoint" />
            <mxPoint x="326.75" y="580" as="targetPoint" />
            <Array as="points">
              <mxPoint x="263.75" y="580" />
            </Array>
          </mxGeometry>
        </mxCell>
        <mxCell id="b_XZTSJZ4UOfbabVOEi3-40" value="disconnect" style="html=1;verticalAlign=bottom;startArrow=oval;endArrow=block;startSize=8;" parent="b_XZTSJZ4UOfbabVOEi3-1" source="b_XZTSJZ4UOfbabVOEi3-22" target="b_XZTSJZ4UOfbabVOEi3-26" edge="1">
          <mxGeometry relative="1" as="geometry">
            <mxPoint x="233.25" y="610" as="sourcePoint" />
            <mxPoint x="326.75" y="610" as="targetPoint" />
            <Array as="points">
              <mxPoint x="263.75" y="610" />
            </Array>
          </mxGeometry>
        </mxCell>
        <mxCell id="rsKsfebqh6Drvzjf2E0--0" value="&lt;h1&gt;Server side matching&lt;/h1&gt;&lt;p&gt;A user could pick some items in full list of items to be offered to other users in return to some other items picked as requested ones.&lt;br&gt;So each item in full items list can have a number and a &quot;sign&quot; - outbound or inbound.&lt;br&gt;These numbers could then be shared across other users with matched requirements - If a User A has requirement fo item X, and offers item Y as part of his trading offer, then User B will see an offer of user A in his UI if User B will have an offer giving item X in return to item Y.&lt;br&gt;Server decides which users should be notified, so matching is done by a server.&lt;br&gt;Please note that current diagram shows a situation of a single offer possible for a user in each moment of time. Basically, each connected instance represents an offer if any of items have at least one number as inbound or outbound.&lt;/p&gt;" style="text;html=1;strokeColor=none;fillColor=none;spacing=5;spacingTop=-20;whiteSpace=wrap;overflow=hidden;rounded=0;" parent="b_XZTSJZ4UOfbabVOEi3-1" vertex="1">
          <mxGeometry x="30" y="31" width="770" height="149" as="geometry" />
        </mxCell>
        <mxCell id="yv-qqk-nvo4NC_G6vWXg-0" value="Offer id" style="html=1;verticalAlign=bottom;startArrow=oval;endArrow=block;startSize=8;" parent="b_XZTSJZ4UOfbabVOEi3-1" target="yv-qqk-nvo4NC_G6vWXg-2" edge="1">
          <mxGeometry relative="1" as="geometry">
            <mxPoint x="84.25" y="1120" as="sourcePoint" />
            <Array as="points">
              <mxPoint x="114.75" y="1120" />
            </Array>
            <mxPoint x="177.75" y="1120" as="targetPoint" />
          </mxGeometry>
        </mxCell>
        <mxCell id="yv-qqk-nvo4NC_G6vWXg-1" style="edgeStyle=orthogonalEdgeStyle;rounded=0;orthogonalLoop=1;jettySize=auto;html=1;dashed=1;dashPattern=1 2;startArrow=none;startFill=0;" parent="b_XZTSJZ4UOfbabVOEi3-1" source="yv-qqk-nvo4NC_G6vWXg-2" target="yv-qqk-nvo4NC_G6vWXg-4" edge="1">
          <mxGeometry relative="1" as="geometry">
            <Array as="points" />
          </mxGeometry>
        </mxCell>
        <mxCell id="yv-qqk-nvo4NC_G6vWXg-2" value="Request&lt;br&gt;Contact" style="html=1;points=[];perimeter=orthogonalPerimeter;" parent="b_XZTSJZ4UOfbabVOEi3-1" vertex="1">
          <mxGeometry x="180.75" y="1120" width="94" height="80" as="geometry" />
        </mxCell>
        <mxCell id="yv-qqk-nvo4NC_G6vWXg-3" style="edgeStyle=orthogonalEdgeStyle;rounded=0;orthogonalLoop=1;jettySize=auto;html=1;dashed=1;dashPattern=1 2;startArrow=none;startFill=0;" parent="b_XZTSJZ4UOfbabVOEi3-1" source="yv-qqk-nvo4NC_G6vWXg-4" target="yv-qqk-nvo4NC_G6vWXg-6" edge="1">
          <mxGeometry relative="1" as="geometry" />
        </mxCell>
        <mxCell id="yv-qqk-nvo4NC_G6vWXg-4" value="Push request&lt;br&gt;to offer party" style="html=1;points=[];perimeter=orthogonalPerimeter;" parent="b_XZTSJZ4UOfbabVOEi3-1" vertex="1">
          <mxGeometry x="364.75" y="1140" width="120" height="80" as="geometry" />
        </mxCell>
        <mxCell id="yv-qqk-nvo4NC_G6vWXg-5" value="notification" style="edgeStyle=orthogonalEdgeStyle;rounded=0;orthogonalLoop=1;jettySize=auto;html=1;dashed=1;dashPattern=1 2;startArrow=none;startFill=0;verticalAlign=bottom;" parent="b_XZTSJZ4UOfbabVOEi3-1" source="yv-qqk-nvo4NC_G6vWXg-6" edge="1">
          <mxGeometry relative="1" as="geometry">
            <mxPoint x="744.25" y="1250" as="targetPoint" />
            <Array as="points">
              <mxPoint x="680.75" y="1250" />
              <mxPoint x="680.75" y="1250" />
            </Array>
          </mxGeometry>
        </mxCell>
        <mxCell id="yv-qqk-nvo4NC_G6vWXg-6" value="Update&lt;br&gt;Matched&lt;br&gt;Offer" style="html=1;points=[];perimeter=orthogonalPerimeter;" parent="b_XZTSJZ4UOfbabVOEi3-1" vertex="1">
          <mxGeometry x="567.75" y="1170" width="94" height="80" as="geometry" />
        </mxCell>
        <mxCell id="yv-qqk-nvo4NC_G6vWXg-7" value="Offer id" style="html=1;verticalAlign=bottom;startArrow=oval;endArrow=block;startSize=8;" parent="b_XZTSJZ4UOfbabVOEi3-1" target="yv-qqk-nvo4NC_G6vWXg-9" edge="1">
          <mxGeometry relative="1" as="geometry">
            <mxPoint x="85.75" y="1230" as="sourcePoint" />
            <Array as="points">
              <mxPoint x="116.25" y="1230" />
            </Array>
            <mxPoint x="179.25" y="1230" as="targetPoint" />
          </mxGeometry>
        </mxCell>
        <mxCell id="yv-qqk-nvo4NC_G6vWXg-8" style="edgeStyle=orthogonalEdgeStyle;rounded=0;orthogonalLoop=1;jettySize=auto;html=1;dashed=1;dashPattern=1 2;startArrow=none;startFill=0;" parent="b_XZTSJZ4UOfbabVOEi3-1" source="yv-qqk-nvo4NC_G6vWXg-9" target="yv-qqk-nvo4NC_G6vWXg-11" edge="1">
          <mxGeometry relative="1" as="geometry">
            <Array as="points" />
          </mxGeometry>
        </mxCell>
        <mxCell id="yv-qqk-nvo4NC_G6vWXg-9" value="Share&lt;br&gt;Contact" style="html=1;points=[];perimeter=orthogonalPerimeter;" parent="b_XZTSJZ4UOfbabVOEi3-1" vertex="1">
          <mxGeometry x="182.25" y="1230" width="94" height="80" as="geometry" />
        </mxCell>
        <mxCell id="yv-qqk-nvo4NC_G6vWXg-10" style="edgeStyle=orthogonalEdgeStyle;rounded=0;orthogonalLoop=1;jettySize=auto;html=1;dashed=1;dashPattern=1 2;startArrow=none;startFill=0;" parent="b_XZTSJZ4UOfbabVOEi3-1" source="yv-qqk-nvo4NC_G6vWXg-11" target="yv-qqk-nvo4NC_G6vWXg-13" edge="1">
          <mxGeometry relative="1" as="geometry" />
        </mxCell>
        <mxCell id="yv-qqk-nvo4NC_G6vWXg-11" value="Push request&lt;br&gt;to offer party" style="html=1;points=[];perimeter=orthogonalPerimeter;" parent="b_XZTSJZ4UOfbabVOEi3-1" vertex="1">
          <mxGeometry x="366.25" y="1250" width="120" height="80" as="geometry" />
        </mxCell>
        <mxCell id="yv-qqk-nvo4NC_G6vWXg-12" value="notification" style="edgeStyle=orthogonalEdgeStyle;rounded=0;orthogonalLoop=1;jettySize=auto;html=1;dashed=1;dashPattern=1 2;startArrow=none;startFill=0;verticalAlign=bottom;" parent="b_XZTSJZ4UOfbabVOEi3-1" source="yv-qqk-nvo4NC_G6vWXg-13" edge="1">
          <mxGeometry relative="1" as="geometry">
            <mxPoint x="745.75" y="1360" as="targetPoint" />
            <Array as="points">
              <mxPoint x="682.25" y="1360" />
              <mxPoint x="682.25" y="1360" />
            </Array>
          </mxGeometry>
        </mxCell>
        <mxCell id="yv-qqk-nvo4NC_G6vWXg-13" value="Update&lt;br&gt;Matched&lt;br&gt;Offer" style="html=1;points=[];perimeter=orthogonalPerimeter;" parent="b_XZTSJZ4UOfbabVOEi3-1" vertex="1">
          <mxGeometry x="569.25" y="1280" width="94" height="80" as="geometry" />
        </mxCell>
      </root>
    </mxGraphModel>
  </diagram>
  <diagram id="HN8T4N_YbBU53WEKGEcK" name="Implicit matching">
    <mxGraphModel dx="1298" dy="841" grid="1" gridSize="10" guides="1" tooltips="1" connect="1" arrows="1" fold="1" page="1" pageScale="1" pageWidth="827" pageHeight="1169" math="0" shadow="0">
      <root>
        <mxCell id="0" />
        <mxCell id="1" parent="0" />
        <mxCell id="nx0PZodk_9pLsmSHCv-C-3" style="edgeStyle=orthogonalEdgeStyle;rounded=0;orthogonalLoop=1;jettySize=auto;html=1;entryX=0.75;entryY=0;entryDx=0;entryDy=0;" parent="1" source="4njGLkPon3bPsv2PsM9t-1" target="nx0PZodk_9pLsmSHCv-C-1" edge="1">
          <mxGeometry relative="1" as="geometry" />
        </mxCell>
        <mxCell id="4njGLkPon3bPsv2PsM9t-1" value="Wishlist items" style="rounded=0;whiteSpace=wrap;html=1;fillColor=#dae8fc;strokeColor=#6c8ebf;" parent="1" vertex="1">
          <mxGeometry x="200" y="220" width="120" height="60" as="geometry" />
        </mxCell>
        <mxCell id="nx0PZodk_9pLsmSHCv-C-2" style="edgeStyle=orthogonalEdgeStyle;rounded=0;orthogonalLoop=1;jettySize=auto;html=1;entryX=0.25;entryY=0;entryDx=0;entryDy=0;" parent="1" source="4njGLkPon3bPsv2PsM9t-2" target="nx0PZodk_9pLsmSHCv-C-1" edge="1">
          <mxGeometry relative="1" as="geometry" />
        </mxCell>
        <mxCell id="4njGLkPon3bPsv2PsM9t-2" value="Stock items" style="rounded=0;whiteSpace=wrap;html=1;fillColor=#dae8fc;strokeColor=#6c8ebf;" parent="1" vertex="1">
          <mxGeometry x="40" y="220" width="120" height="60" as="geometry" />
        </mxCell>
        <mxCell id="nx0PZodk_9pLsmSHCv-C-4" style="edgeStyle=orthogonalEdgeStyle;rounded=0;orthogonalLoop=1;jettySize=auto;html=1;entryX=0.5;entryY=0;entryDx=0;entryDy=0;" parent="1" source="4njGLkPon3bPsv2PsM9t-3" target="4njGLkPon3bPsv2PsM9t-2" edge="1">
          <mxGeometry relative="1" as="geometry" />
        </mxCell>
        <mxCell id="nx0PZodk_9pLsmSHCv-C-5" style="edgeStyle=orthogonalEdgeStyle;rounded=0;orthogonalLoop=1;jettySize=auto;html=1;entryX=0.5;entryY=0;entryDx=0;entryDy=0;" parent="1" source="4njGLkPon3bPsv2PsM9t-3" target="4njGLkPon3bPsv2PsM9t-1" edge="1">
          <mxGeometry relative="1" as="geometry" />
        </mxCell>
        <mxCell id="nx0PZodk_9pLsmSHCv-C-52" style="edgeStyle=orthogonalEdgeStyle;rounded=0;orthogonalLoop=1;jettySize=auto;html=1;exitX=0.75;exitY=0.1;exitDx=0;exitDy=0;exitPerimeter=0;entryX=0;entryY=0.5;entryDx=0;entryDy=0;" parent="1" source="4njGLkPon3bPsv2PsM9t-3" target="nx0PZodk_9pLsmSHCv-C-46" edge="1">
          <mxGeometry relative="1" as="geometry" />
        </mxCell>
        <mxCell id="4njGLkPon3bPsv2PsM9t-3" value="User" style="shape=umlActor;verticalLabelPosition=bottom;verticalAlign=top;html=1;outlineConnect=0;" parent="1" vertex="1">
          <mxGeometry x="165" y="130" width="30" height="60" as="geometry" />
        </mxCell>
        <mxCell id="nx0PZodk_9pLsmSHCv-C-13" style="edgeStyle=orthogonalEdgeStyle;rounded=0;orthogonalLoop=1;jettySize=auto;html=1;entryX=0.5;entryY=0;entryDx=0;entryDy=0;" parent="1" source="nx0PZodk_9pLsmSHCv-C-1" target="nx0PZodk_9pLsmSHCv-C-6" edge="1">
          <mxGeometry relative="1" as="geometry" />
        </mxCell>
        <mxCell id="nx0PZodk_9pLsmSHCv-C-24" value="sent to" style="edgeLabel;html=1;align=center;verticalAlign=middle;resizable=0;points=[];" parent="nx0PZodk_9pLsmSHCv-C-13" vertex="1" connectable="0">
          <mxGeometry x="-0.125" y="1" relative="1" as="geometry">
            <mxPoint as="offset" />
          </mxGeometry>
        </mxCell>
        <mxCell id="nx0PZodk_9pLsmSHCv-C-1" value="Spare items ready for trade" style="rounded=0;whiteSpace=wrap;html=1;" parent="1" vertex="1">
          <mxGeometry x="120" y="345" width="120" height="60" as="geometry" />
        </mxCell>
        <mxCell id="nx0PZodk_9pLsmSHCv-C-22" style="edgeStyle=orthogonalEdgeStyle;rounded=0;orthogonalLoop=1;jettySize=auto;html=1;entryX=0.5;entryY=0;entryDx=0;entryDy=0;" parent="1" source="nx0PZodk_9pLsmSHCv-C-6" target="nx0PZodk_9pLsmSHCv-C-8" edge="1">
          <mxGeometry relative="1" as="geometry" />
        </mxCell>
        <mxCell id="nx0PZodk_9pLsmSHCv-C-6" value="Shared pool of spare items" style="rounded=0;whiteSpace=wrap;html=1;" parent="1" vertex="1">
          <mxGeometry x="120" y="455" width="120" height="60" as="geometry" />
        </mxCell>
        <mxCell id="bZ9h2n8A-jkVa74WTC_s-6" style="edgeStyle=orthogonalEdgeStyle;rounded=0;orthogonalLoop=1;jettySize=auto;html=1;" parent="1" source="nx0PZodk_9pLsmSHCv-C-8" target="bZ9h2n8A-jkVa74WTC_s-1" edge="1">
          <mxGeometry relative="1" as="geometry" />
        </mxCell>
        <mxCell id="nx0PZodk_9pLsmSHCv-C-8" value="Spare items" style="swimlane;fontStyle=0;childLayout=stackLayout;horizontal=1;startSize=26;horizontalStack=0;resizeParent=1;resizeParentMax=0;resizeLast=0;collapsible=1;marginBottom=0;" parent="1" vertex="1">
          <mxGeometry x="390" y="505" width="140" height="130" as="geometry">
            <mxRectangle x="355" y="585" width="50" height="26" as="alternateBounds" />
          </mxGeometry>
        </mxCell>
        <mxCell id="nx0PZodk_9pLsmSHCv-C-9" value="User (a Giver)" style="text;strokeColor=none;fillColor=none;align=left;verticalAlign=top;spacingLeft=4;spacingRight=4;overflow=hidden;rotatable=0;points=[[0,0.5],[1,0.5]];portConstraint=eastwest;" parent="nx0PZodk_9pLsmSHCv-C-8" vertex="1">
          <mxGeometry y="26" width="140" height="26" as="geometry" />
        </mxCell>
        <mxCell id="nx0PZodk_9pLsmSHCv-C-10" value="Item" style="text;strokeColor=none;fillColor=none;align=left;verticalAlign=top;spacingLeft=4;spacingRight=4;overflow=hidden;rotatable=0;points=[[0,0.5],[1,0.5]];portConstraint=eastwest;" parent="nx0PZodk_9pLsmSHCv-C-8" vertex="1">
          <mxGeometry y="52" width="140" height="26" as="geometry" />
        </mxCell>
        <mxCell id="nx0PZodk_9pLsmSHCv-C-11" value="Count" style="text;strokeColor=none;fillColor=none;align=left;verticalAlign=top;spacingLeft=4;spacingRight=4;overflow=hidden;rotatable=0;points=[[0,0.5],[1,0.5]];portConstraint=eastwest;" parent="nx0PZodk_9pLsmSHCv-C-8" vertex="1">
          <mxGeometry y="78" width="140" height="26" as="geometry" />
        </mxCell>
        <mxCell id="nx0PZodk_9pLsmSHCv-C-12" value="Last updated date" style="text;strokeColor=none;fillColor=none;align=left;verticalAlign=top;spacingLeft=4;spacingRight=4;overflow=hidden;rotatable=0;points=[[0,0.5],[1,0.5]];portConstraint=eastwest;" parent="nx0PZodk_9pLsmSHCv-C-8" vertex="1">
          <mxGeometry y="104" width="140" height="26" as="geometry" />
        </mxCell>
        <mxCell id="nx0PZodk_9pLsmSHCv-C-14" value="spare = stock - wishlist" style="text;html=1;align=center;verticalAlign=middle;resizable=0;points=[];autosize=1;strokeColor=none;" parent="1" vertex="1">
          <mxGeometry x="110" y="285" width="140" height="20" as="geometry" />
        </mxCell>
        <mxCell id="nx0PZodk_9pLsmSHCv-C-17" value="" style="edgeStyle=orthogonalEdgeStyle;rounded=0;orthogonalLoop=1;jettySize=auto;html=1;" parent="1" source="nx0PZodk_9pLsmSHCv-C-15" target="nx0PZodk_9pLsmSHCv-C-16" edge="1">
          <mxGeometry relative="1" as="geometry" />
        </mxCell>
        <mxCell id="nx0PZodk_9pLsmSHCv-C-20" value="Look for" style="edgeLabel;html=1;align=center;verticalAlign=middle;resizable=0;points=[];" parent="nx0PZodk_9pLsmSHCv-C-17" vertex="1" connectable="0">
          <mxGeometry x="-0.2211" y="-3" relative="1" as="geometry">
            <mxPoint x="16" y="-3" as="offset" />
          </mxGeometry>
        </mxCell>
        <mxCell id="nx0PZodk_9pLsmSHCv-C-15" value="Wishlist item" style="rounded=0;whiteSpace=wrap;html=1;fillColor=#dae8fc;strokeColor=#6c8ebf;" parent="1" vertex="1">
          <mxGeometry x="40" y="665" width="120" height="60" as="geometry" />
        </mxCell>
        <mxCell id="nx0PZodk_9pLsmSHCv-C-21" value="Request from" style="edgeStyle=orthogonalEdgeStyle;rounded=0;orthogonalLoop=1;jettySize=auto;html=1;" parent="1" source="nx0PZodk_9pLsmSHCv-C-16" target="bZ9h2n8A-jkVa74WTC_s-1" edge="1">
          <mxGeometry relative="1" as="geometry" />
        </mxCell>
        <mxCell id="nx0PZodk_9pLsmSHCv-C-26" style="edgeStyle=orthogonalEdgeStyle;rounded=0;orthogonalLoop=1;jettySize=auto;html=1;entryX=0.5;entryY=0;entryDx=0;entryDy=0;" parent="1" source="nx0PZodk_9pLsmSHCv-C-16" target="nx0PZodk_9pLsmSHCv-C-25" edge="1">
          <mxGeometry relative="1" as="geometry" />
        </mxCell>
        <mxCell id="nx0PZodk_9pLsmSHCv-C-16" value="Available in pool" style="rounded=0;whiteSpace=wrap;html=1;" parent="1" vertex="1">
          <mxGeometry x="240" y="665" width="120" height="60" as="geometry" />
        </mxCell>
        <mxCell id="nx0PZodk_9pLsmSHCv-C-40" style="edgeStyle=orthogonalEdgeStyle;rounded=0;orthogonalLoop=1;jettySize=auto;html=1;entryX=0;entryY=0.5;entryDx=0;entryDy=0;" parent="1" source="nx0PZodk_9pLsmSHCv-C-25" target="nx0PZodk_9pLsmSHCv-C-29" edge="1">
          <mxGeometry relative="1" as="geometry" />
        </mxCell>
        <mxCell id="nx0PZodk_9pLsmSHCv-C-25" value="Trade offer" style="rounded=0;whiteSpace=wrap;html=1;fillColor=#d5e8d4;strokeColor=#82b366;" parent="1" vertex="1">
          <mxGeometry x="240" y="805" width="120" height="60" as="geometry" />
        </mxCell>
        <mxCell id="nx0PZodk_9pLsmSHCv-C-45" style="edgeStyle=orthogonalEdgeStyle;rounded=0;orthogonalLoop=1;jettySize=auto;html=1;" parent="1" source="nx0PZodk_9pLsmSHCv-C-27" target="nx0PZodk_9pLsmSHCv-C-41" edge="1">
          <mxGeometry relative="1" as="geometry" />
        </mxCell>
        <mxCell id="nx0PZodk_9pLsmSHCv-C-27" value="Trade" style="swimlane;fontStyle=0;childLayout=stackLayout;horizontal=1;startSize=26;horizontalStack=0;resizeParent=1;resizeParentMax=0;resizeLast=0;collapsible=1;marginBottom=0;" parent="1" vertex="1">
          <mxGeometry x="390" y="770" width="140" height="260" as="geometry" />
        </mxCell>
        <mxCell id="nx0PZodk_9pLsmSHCv-C-28" value="Giver" style="text;strokeColor=none;fillColor=none;align=left;verticalAlign=top;spacingLeft=4;spacingRight=4;overflow=hidden;rotatable=0;points=[[0,0.5],[1,0.5]];portConstraint=eastwest;" parent="nx0PZodk_9pLsmSHCv-C-27" vertex="1">
          <mxGeometry y="26" width="140" height="26" as="geometry" />
        </mxCell>
        <mxCell id="nx0PZodk_9pLsmSHCv-C-29" value="Receiver" style="text;strokeColor=none;fillColor=none;align=left;verticalAlign=top;spacingLeft=4;spacingRight=4;overflow=hidden;rotatable=0;points=[[0,0.5],[1,0.5]];portConstraint=eastwest;" parent="nx0PZodk_9pLsmSHCv-C-27" vertex="1">
          <mxGeometry y="52" width="140" height="26" as="geometry" />
        </mxCell>
        <mxCell id="nx0PZodk_9pLsmSHCv-C-33" value="Created Date" style="text;strokeColor=none;fillColor=none;align=left;verticalAlign=top;spacingLeft=4;spacingRight=4;overflow=hidden;rotatable=0;points=[[0,0.5],[1,0.5]];portConstraint=eastwest;" parent="nx0PZodk_9pLsmSHCv-C-27" vertex="1">
          <mxGeometry y="78" width="140" height="26" as="geometry" />
        </mxCell>
        <mxCell id="nx0PZodk_9pLsmSHCv-C-34" value="Will Expire Date" style="text;strokeColor=none;fillColor=none;align=left;verticalAlign=top;spacingLeft=4;spacingRight=4;overflow=hidden;rotatable=0;points=[[0,0.5],[1,0.5]];portConstraint=eastwest;" parent="nx0PZodk_9pLsmSHCv-C-27" vertex="1">
          <mxGeometry y="104" width="140" height="26" as="geometry" />
        </mxCell>
        <mxCell id="pmGqRi4zPN0vgSuQEBXr-1" value="Delivered (Read) Date" style="text;strokeColor=none;fillColor=none;align=left;verticalAlign=top;spacingLeft=4;spacingRight=4;overflow=hidden;rotatable=0;points=[[0,0.5],[1,0.5]];portConstraint=eastwest;" parent="nx0PZodk_9pLsmSHCv-C-27" vertex="1">
          <mxGeometry y="130" width="140" height="26" as="geometry" />
        </mxCell>
        <mxCell id="nx0PZodk_9pLsmSHCv-C-37" value="Accepted Date" style="text;strokeColor=none;fillColor=none;align=left;verticalAlign=top;spacingLeft=4;spacingRight=4;overflow=hidden;rotatable=0;points=[[0,0.5],[1,0.5]];portConstraint=eastwest;" parent="nx0PZodk_9pLsmSHCv-C-27" vertex="1">
          <mxGeometry y="156" width="140" height="26" as="geometry" />
        </mxCell>
        <mxCell id="nx0PZodk_9pLsmSHCv-C-38" value="Rejected Date" style="text;strokeColor=none;fillColor=none;align=left;verticalAlign=top;spacingLeft=4;spacingRight=4;overflow=hidden;rotatable=0;points=[[0,0.5],[1,0.5]];portConstraint=eastwest;" parent="nx0PZodk_9pLsmSHCv-C-27" vertex="1">
          <mxGeometry y="182" width="140" height="26" as="geometry" />
        </mxCell>
        <mxCell id="nx0PZodk_9pLsmSHCv-C-39" value="Invalidated Date" style="text;strokeColor=none;fillColor=none;align=left;verticalAlign=top;spacingLeft=4;spacingRight=4;overflow=hidden;rotatable=0;points=[[0,0.5],[1,0.5]];portConstraint=eastwest;" parent="nx0PZodk_9pLsmSHCv-C-27" vertex="1">
          <mxGeometry y="208" width="140" height="26" as="geometry" />
        </mxCell>
        <mxCell id="Np_zVXQFGMn8gmgTQ2cP-1" value="Fulfilled Date" style="text;strokeColor=none;fillColor=none;align=left;verticalAlign=top;spacingLeft=4;spacingRight=4;overflow=hidden;rotatable=0;points=[[0,0.5],[1,0.5]];portConstraint=eastwest;" parent="nx0PZodk_9pLsmSHCv-C-27" vertex="1">
          <mxGeometry y="234" width="140" height="26" as="geometry" />
        </mxCell>
        <mxCell id="nx0PZodk_9pLsmSHCv-C-41" value="Trade Positions" style="swimlane;fontStyle=0;childLayout=stackLayout;horizontal=1;startSize=26;horizontalStack=0;resizeParent=1;resizeParentMax=0;resizeLast=0;collapsible=1;marginBottom=0;" parent="1" vertex="1">
          <mxGeometry x="580" y="848" width="140" height="104" as="geometry" />
        </mxCell>
        <mxCell id="nx0PZodk_9pLsmSHCv-C-42" value="Item to give or receive" style="text;strokeColor=none;fillColor=none;align=left;verticalAlign=top;spacingLeft=4;spacingRight=4;overflow=hidden;rotatable=0;points=[[0,0.5],[1,0.5]];portConstraint=eastwest;" parent="nx0PZodk_9pLsmSHCv-C-41" vertex="1">
          <mxGeometry y="26" width="140" height="26" as="geometry" />
        </mxCell>
        <mxCell id="nx0PZodk_9pLsmSHCv-C-43" value="Give Count" style="text;strokeColor=none;fillColor=none;align=left;verticalAlign=top;spacingLeft=4;spacingRight=4;overflow=hidden;rotatable=0;points=[[0,0.5],[1,0.5]];portConstraint=eastwest;" parent="nx0PZodk_9pLsmSHCv-C-41" vertex="1">
          <mxGeometry y="52" width="140" height="26" as="geometry" />
        </mxCell>
        <mxCell id="nx0PZodk_9pLsmSHCv-C-44" value="Receive Count" style="text;strokeColor=none;fillColor=none;align=left;verticalAlign=top;spacingLeft=4;spacingRight=4;overflow=hidden;rotatable=0;points=[[0,0.5],[1,0.5]];portConstraint=eastwest;" parent="nx0PZodk_9pLsmSHCv-C-41" vertex="1">
          <mxGeometry y="78" width="140" height="26" as="geometry" />
        </mxCell>
        <mxCell id="nx0PZodk_9pLsmSHCv-C-46" value="Users" style="swimlane;fontStyle=0;childLayout=stackLayout;horizontal=1;startSize=26;horizontalStack=0;resizeParent=1;resizeParentMax=0;resizeLast=0;collapsible=1;marginBottom=0;" parent="1" vertex="1">
          <mxGeometry x="390" y="145" width="140" height="130" as="geometry">
            <mxRectangle x="355" y="585" width="50" height="26" as="alternateBounds" />
          </mxGeometry>
        </mxCell>
        <mxCell id="nx0PZodk_9pLsmSHCv-C-47" value="In-game name" style="text;strokeColor=none;fillColor=none;align=left;verticalAlign=top;spacingLeft=4;spacingRight=4;overflow=hidden;rotatable=0;points=[[0,0.5],[1,0.5]];portConstraint=eastwest;" parent="nx0PZodk_9pLsmSHCv-C-46" vertex="1">
          <mxGeometry y="26" width="140" height="26" as="geometry" />
        </mxCell>
        <mxCell id="nx0PZodk_9pLsmSHCv-C-48" value="Contact info" style="text;strokeColor=none;fillColor=none;align=left;verticalAlign=top;spacingLeft=4;spacingRight=4;overflow=hidden;rotatable=0;points=[[0,0.5],[1,0.5]];portConstraint=eastwest;" parent="nx0PZodk_9pLsmSHCv-C-46" vertex="1">
          <mxGeometry y="52" width="140" height="26" as="geometry" />
        </mxCell>
        <mxCell id="nx0PZodk_9pLsmSHCv-C-49" value="Trades Fulfilled Count" style="text;strokeColor=none;fillColor=none;align=left;verticalAlign=top;spacingLeft=4;spacingRight=4;overflow=hidden;rotatable=0;points=[[0,0.5],[1,0.5]];portConstraint=eastwest;" parent="nx0PZodk_9pLsmSHCv-C-46" vertex="1">
          <mxGeometry y="78" width="140" height="26" as="geometry" />
        </mxCell>
        <mxCell id="nx0PZodk_9pLsmSHCv-C-53" value="API key hash" style="text;strokeColor=none;fillColor=none;align=left;verticalAlign=top;spacingLeft=4;spacingRight=4;overflow=hidden;rotatable=0;points=[[0,0.5],[1,0.5]];portConstraint=eastwest;" parent="nx0PZodk_9pLsmSHCv-C-46" vertex="1">
          <mxGeometry y="104" width="140" height="26" as="geometry" />
        </mxCell>
        <mxCell id="pmGqRi4zPN0vgSuQEBXr-2" value="Needs to be implemented in current UI:&lt;br&gt;a list of Trade offers - outbound/inbound" style="text;html=1;align=center;verticalAlign=middle;resizable=0;points=[];autosize=1;strokeColor=none;" parent="1" vertex="1">
          <mxGeometry x="85" y="905" width="230" height="30" as="geometry" />
        </mxCell>
        <mxCell id="bZ9h2n8A-jkVa74WTC_s-1" value="Shared items pool" style="swimlane;fontStyle=0;childLayout=stackLayout;horizontal=1;startSize=26;horizontalStack=0;resizeParent=1;resizeParentMax=0;resizeLast=0;collapsible=1;marginBottom=0;" parent="1" vertex="1">
          <mxGeometry x="620" y="518" width="140" height="104" as="geometry">
            <mxRectangle x="355" y="585" width="50" height="26" as="alternateBounds" />
          </mxGeometry>
        </mxCell>
        <mxCell id="bZ9h2n8A-jkVa74WTC_s-3" value="Item" style="text;strokeColor=none;fillColor=none;align=left;verticalAlign=top;spacingLeft=4;spacingRight=4;overflow=hidden;rotatable=0;points=[[0,0.5],[1,0.5]];portConstraint=eastwest;" parent="bZ9h2n8A-jkVa74WTC_s-1" vertex="1">
          <mxGeometry y="26" width="140" height="26" as="geometry" />
        </mxCell>
        <mxCell id="bZ9h2n8A-jkVa74WTC_s-4" value="Count" style="text;strokeColor=none;fillColor=none;align=left;verticalAlign=top;spacingLeft=4;spacingRight=4;overflow=hidden;rotatable=0;points=[[0,0.5],[1,0.5]];portConstraint=eastwest;" parent="bZ9h2n8A-jkVa74WTC_s-1" vertex="1">
          <mxGeometry y="52" width="140" height="26" as="geometry" />
        </mxCell>
        <mxCell id="bZ9h2n8A-jkVa74WTC_s-5" value="Last updated date" style="text;strokeColor=none;fillColor=none;align=left;verticalAlign=top;spacingLeft=4;spacingRight=4;overflow=hidden;rotatable=0;points=[[0,0.5],[1,0.5]];portConstraint=eastwest;" parent="bZ9h2n8A-jkVa74WTC_s-1" vertex="1">
          <mxGeometry y="78" width="140" height="26" as="geometry" />
        </mxCell>
        <mxCell id="bZ9h2n8A-jkVa74WTC_s-7" style="edgeStyle=orthogonalEdgeStyle;rounded=0;orthogonalLoop=1;jettySize=auto;html=1;jumpStyle=arc;dashed=1;dashPattern=1 4;" parent="1" source="nx0PZodk_9pLsmSHCv-C-8" target="nx0PZodk_9pLsmSHCv-C-27" edge="1">
          <mxGeometry relative="1" as="geometry" />
        </mxCell>
        <mxCell id="Bp41_GutEc8yrndZIiR6-1" value="&lt;h1&gt;Implicit matching&lt;/h1&gt;&lt;p&gt;We could just share our spare items and wish lists to let UI highlight items available for request from other players.&lt;br&gt;This is easy to implement but rather spam risky. Anyway, we could have an option to turn this implicit matching off in app settings.&amp;nbsp;&lt;/p&gt;" style="text;html=1;strokeColor=none;fillColor=none;spacing=5;spacingTop=-20;whiteSpace=wrap;overflow=hidden;rounded=0;" parent="1" vertex="1">
          <mxGeometry x="30" y="31" width="770" height="90" as="geometry" />
        </mxCell>
      </root>
    </mxGraphModel>
  </diagram>
  <diagram id="N52e4mLQ-JpGZ-rnlX_a" name="Spare Items Pool">
    <mxGraphModel dx="1298" dy="841" grid="1" gridSize="10" guides="1" tooltips="1" connect="1" arrows="1" fold="1" page="1" pageScale="1" pageWidth="827" pageHeight="1169" math="0" shadow="0">
      <root>
        <mxCell id="mjKqVLuYLk38cLpWPBVm-0" />
        <mxCell id="mjKqVLuYLk38cLpWPBVm-1" parent="mjKqVLuYLk38cLpWPBVm-0" />
        <mxCell id="x0c5cpKbj5vI_sPzeT8R-0" style="edgeStyle=orthogonalEdgeStyle;rounded=0;orthogonalLoop=1;jettySize=auto;html=1;" parent="mjKqVLuYLk38cLpWPBVm-1" source="mjKqVLuYLk38cLpWPBVm-2" target="mjKqVLuYLk38cLpWPBVm-3" edge="1">
          <mxGeometry relative="1" as="geometry" />
        </mxCell>
        <mxCell id="mjKqVLuYLk38cLpWPBVm-2" value="Authenticate" style="rounded=0;whiteSpace=wrap;html=1;" parent="mjKqVLuYLk38cLpWPBVm-1" vertex="1">
          <mxGeometry x="40" y="120" width="120" height="60" as="geometry" />
        </mxCell>
        <mxCell id="x0c5cpKbj5vI_sPzeT8R-1" style="edgeStyle=orthogonalEdgeStyle;rounded=0;orthogonalLoop=1;jettySize=auto;html=1;" parent="mjKqVLuYLk38cLpWPBVm-1" source="mjKqVLuYLk38cLpWPBVm-3" target="PvGyQd9rEFpjBCf1vXaA-0" edge="1">
          <mxGeometry relative="1" as="geometry" />
        </mxCell>
        <mxCell id="hO-IOQepNzvgVwFzdx7u-1" value="" style="edgeStyle=orthogonalEdgeStyle;rounded=0;orthogonalLoop=1;jettySize=auto;html=1;" parent="mjKqVLuYLk38cLpWPBVm-1" source="mjKqVLuYLk38cLpWPBVm-3" target="hO-IOQepNzvgVwFzdx7u-0" edge="1">
          <mxGeometry relative="1" as="geometry" />
        </mxCell>
        <mxCell id="mjKqVLuYLk38cLpWPBVm-3" value="Sync" style="rounded=0;whiteSpace=wrap;html=1;" parent="mjKqVLuYLk38cLpWPBVm-1" vertex="1">
          <mxGeometry x="40" y="240" width="120" height="60" as="geometry" />
        </mxCell>
        <mxCell id="x0c5cpKbj5vI_sPzeT8R-2" style="edgeStyle=orthogonalEdgeStyle;rounded=0;orthogonalLoop=1;jettySize=auto;html=1;" parent="mjKqVLuYLk38cLpWPBVm-1" source="PvGyQd9rEFpjBCf1vXaA-0" target="GOYvpKt6GU444rFal4ay-0" edge="1">
          <mxGeometry relative="1" as="geometry" />
        </mxCell>
        <mxCell id="x0c5cpKbj5vI_sPzeT8R-4" value="" style="edgeStyle=orthogonalEdgeStyle;rounded=0;orthogonalLoop=1;jettySize=auto;html=1;" parent="mjKqVLuYLk38cLpWPBVm-1" source="PvGyQd9rEFpjBCf1vXaA-0" target="x0c5cpKbj5vI_sPzeT8R-3" edge="1">
          <mxGeometry relative="1" as="geometry" />
        </mxCell>
        <mxCell id="PvGyQd9rEFpjBCf1vXaA-0" value="Validate outgoing trade offers" style="rounded=0;whiteSpace=wrap;html=1;" parent="mjKqVLuYLk38cLpWPBVm-1" vertex="1">
          <mxGeometry x="40" y="360" width="120" height="60" as="geometry" />
        </mxCell>
        <mxCell id="GOYvpKt6GU444rFal4ay-0" value="Update incoming trade offers" style="rounded=0;whiteSpace=wrap;html=1;" parent="mjKqVLuYLk38cLpWPBVm-1" vertex="1">
          <mxGeometry x="40" y="480" width="120" height="60" as="geometry" />
        </mxCell>
        <mxCell id="x0c5cpKbj5vI_sPzeT8R-3" value="Mark as Invalid ones that affected with stock changes since last sync" style="rounded=0;whiteSpace=wrap;html=1;" parent="mjKqVLuYLk38cLpWPBVm-1" vertex="1">
          <mxGeometry x="240" y="360" width="120" height="60" as="geometry" />
        </mxCell>
        <mxCell id="hO-IOQepNzvgVwFzdx7u-3" value="" style="edgeStyle=orthogonalEdgeStyle;rounded=0;orthogonalLoop=1;jettySize=auto;html=1;dashed=1;dashPattern=1 4;" parent="mjKqVLuYLk38cLpWPBVm-1" source="hO-IOQepNzvgVwFzdx7u-0" target="hO-IOQepNzvgVwFzdx7u-2" edge="1">
          <mxGeometry relative="1" as="geometry" />
        </mxCell>
        <mxCell id="hO-IOQepNzvgVwFzdx7u-0" value="Upload changed numbers to Shared Items Pool" style="rounded=0;whiteSpace=wrap;html=1;" parent="mjKqVLuYLk38cLpWPBVm-1" vertex="1">
          <mxGeometry x="240" y="240" width="120" height="60" as="geometry" />
        </mxCell>
        <mxCell id="hO-IOQepNzvgVwFzdx7u-2" value="Recalculate Totals for Shared Items Pool" style="rounded=0;whiteSpace=wrap;html=1;" parent="mjKqVLuYLk38cLpWPBVm-1" vertex="1">
          <mxGeometry x="440" y="240" width="120" height="60" as="geometry" />
        </mxCell>
      </root>
    </mxGraphModel>
  </diagram>
</mxfile>
